<?xml version="1.0" encoding="UTF-8" standalone="no"?>
<!-- Created with Inkscape (http://www.inkscape.org/) -->

<svg
   width="9.8999996cm"
   height="11.7cm"
   viewBox="0 0 98.999992 117.00003"
   version="1.1"
   id="svg5"
   sodipodi:docname="branchpipe-filled-icon.svg"
   inkscape:version="1.1.2 (b8e25be833, 2022-02-05)"
   xmlns:inkscape="http://www.inkscape.org/namespaces/inkscape"
   xmlns:sodipodi="http://sodipodi.sourceforge.net/DTD/sodipodi-0.dtd"
   xmlns="http://www.w3.org/2000/svg"
   xmlns:svg="http://www.w3.org/2000/svg">
  <sodipodi:namedview
     id="namedview7"
     pagecolor="#ffffff"
     bordercolor="#666666"
     borderopacity="1.0"
     inkscape:pageshadow="2"
     inkscape:pageopacity="0.0"
     inkscape:pagecheckerboard="0"
     inkscape:document-units="mm"
     showgrid="false"
     units="cm"
     width="9.9cm"
     height="11.7cm"
     inkscape:zoom="1.2810466"
     inkscape:rotation="-1"
     inkscape:cx="257.54635"
     inkscape:cy="206.70472"
     inkscape:window-width="1920"
     inkscape:window-height="1009"
     inkscape:window-x="-8"
     inkscape:window-y="-8"
     inkscape:window-maximized="1"
     inkscape:current-layer="layer2" />
  <defs
     id="defs2">
    <linearGradient
       id="linearGradient24431"
       inkscape:swatch="solid">
      <stop
         style="stop-color:#000000;stop-opacity:1;"
         offset="0"
         id="stop24429" />
    </linearGradient>
    <linearGradient
       id="linearGradient3259"
       inkscape:swatch="solid">
      <stop
         style="stop-color:#000000;stop-opacity:1;"
         offset="0"
         id="stop3257" />
    </linearGradient>
  </defs>
  <g
     inkscape:groupmode="layer"
     id="layer2"
     inkscape:label="Layer 1">
    <g
       id="g12074"
       style="fill:#27213c;fill-opacity:1;stroke:none;stroke-opacity:1"
       transform="translate(-3.0777536,-0.67286546)">
      <path
         style="fill:#27213c;fill-opacity:1;stroke:none;stroke-width:0.264583px;stroke-linecap:butt;stroke-linejoin:miter;stroke-opacity:1"
         d="m 46.987991,8.3571337 c 3.93004,1.8993423 7.89927,1.5531695 11.89036,-0.04542 -1.00184,12.0746323 0.77733,23.3584713 7.64687,26.7583033 -2.47292,-0.987131 -4.99519,0.853559 -7.52155,2.92798 -4.37032,-1.54432 -8.93945,-2.570286 -14.91997,0.08378 -1.50585,-2.150501 -2.9928,-4.357984 -5.5,-3.490216 7.97658,-4.141171 8.66125,-10.913217 8.40429,-26.2344303 z"
         id="path1249"
         sodipodi:nodetypes="ccccccc" />
      <path
         style="fill:#27213c;fill-opacity:1;stroke:none;stroke-width:0.264583px;stroke-linecap:butt;stroke-linejoin:miter;stroke-opacity:1"
         d="m 44.507551,45.165711 -0.42385,-7.083931 c 4.65947,-1.734398 9.62712,-1.524852 14.81255,0.0585 l -0.11133,7.525689 c -4.77403,0.687286 -9.53722,0.75349 -14.27737,-0.500258 z"
         id="path1987"
         sodipodi:nodetypes="ccccc" />
      <path
         style="fill:#27213c;fill-opacity:1;stroke:none;stroke-width:0.264583px;stroke-linecap:butt;stroke-linejoin:miter;stroke-opacity:1"
         d="m 44.355231,45.302529 c -1.85185,-0.419879 -3.69638,-1.258715 -5.50784,-3.99229 l -0.26369,-6.718675 c 1.8592,-0.31867 3.67661,1.757348 5.5,3.490216 z"
         id="path1989"
         sodipodi:nodetypes="ccccc" />
      <path
         style="fill:#27213c;fill-opacity:1;stroke:none;stroke-width:0.264583px;stroke-linecap:butt;stroke-linejoin:miter;stroke-opacity:1"
         d="m 58.784921,45.665969 c 2.84876,-0.579025 5.59183,-1.455564 7.88874,-3.588139 l -0.14844,-7.00781 c -2.52596,0.04801 -5.07625,1.489693 -7.62897,3.07026 z"
         id="path1991"
         sodipodi:nodetypes="ccccc" />
      <path
         style="fill:#27213c;fill-opacity:1;stroke:none;stroke-width:0.264583px;stroke-linecap:butt;stroke-linejoin:miter;stroke-opacity:1"
         d="m 39.433771,42.896966 c -0.53203,0.83178 -0.60068,2.083516 0.39548,4.300289 5.0702,4.025377 18.73347,3.467389 25.20143,-0.290439 1.40301,-1.222768 1.79565,-2.463173 0.66999,-3.730079 -6.82441,4.59443 -20.44826,5.089809 -26.2669,-0.279771 z"
         id="path2711"
         sodipodi:nodetypes="ccccc" />
      <path
         style="fill:#27213c;fill-opacity:1;stroke:none;stroke-width:0.264583px;stroke-linecap:butt;stroke-linejoin:miter;stroke-opacity:1"
         d="m 39.433771,42.896966 c -1.6956,2.018972 -3.84042,3.992603 -1.02995,6.466396 4.89874,5.824177 25.63165,3.366384 29.30659,-1.168211 0.82651,-1.019843 -1.17295,-3.627566 -1.17295,-3.627566 3.56462,6.028943 -32.20407,11.180722 -27.10369,-1.670619 z"
         id="path3297"
         sodipodi:nodetypes="ccscc" />
      <path
         style="fill:#27213c;fill-opacity:1;stroke:none;stroke-width:0.264583px;stroke-linecap:butt;stroke-linejoin:miter;stroke-opacity:1"
         d="m 42.483681,52.027245 -0.8084,37.944752 c 0.0717,1.858752 -0.61956,2.60886 -1.48878,3.100457 -0.56301,8.632576 27.77699,6.27125 24.96471,-0.392769 -1.37927,-0.624781 -1.47934,-2.070479 -1.72057,-3.42559 l -0.53199,-38.108384 c -6.84374,2.513849 -13.64939,2.845608 -20.41497,0.881534 z"
         id="path4605"
         sodipodi:nodetypes="ccccccc" />
      <path
         style="fill:#27213c;fill-opacity:1;stroke:none;stroke-width:0.264583px;stroke-linecap:butt;stroke-linejoin:miter;stroke-opacity:1"
         d="m 41.210411,90.195144 c -1.82042,0.05475 -9.35069,4.820044 -2.00833,8.63493 7.88972,4.099286 18.25446,4.661496 26.88476,-0.505858 6.22184,-3.725294 1.40651,-6.132835 -1.75373,-8.182732 10.55698,10.903146 -33.80041,12.718286 -23.1227,0.05366 z"
         id="path5231"
         sodipodi:nodetypes="csscc" />
      <path
         style="fill:#27213c;fill-opacity:1;stroke:none;stroke-width:0.264583px;stroke-linecap:butt;stroke-linejoin:miter;stroke-opacity:1"
         d="m 39.202081,98.830074 -0.0234,3.005866 c 10.38379,6.23408 18.94241,4.75904 27.21675,0.0175 l -0.53901,-3.130826 c -8.87631,4.797866 -17.76002,5.429846 -26.6543,0.10746 z"
         id="path6767"
         sodipodi:nodetypes="ccccc" />
      <path
         style="fill:#27213c;fill-opacity:1;stroke:none;stroke-width:0.264583px;stroke-linecap:butt;stroke-linejoin:miter;stroke-opacity:1"
         d="m 40.801691,103.67969 c 0.56091,2.38382 0.63968,3.61105 0.27539,3.77541 8.69814,4.99656 16.31711,3.79518 23.41992,0.0742 -0.38175,-0.5328 -0.82071,-0.504 -0.15628,-4.04103 -7.68718,3.91523 -15.51324,4.46987 -23.53903,0.19142 z"
         id="path7166"
         sodipodi:nodetypes="ccccc" />
      <path
         style="fill:#27213c;fill-opacity:1;stroke:none;stroke-width:0.264583px;stroke-linecap:butt;stroke-linejoin:miter;stroke-opacity:1"
         d="m 40.801691,103.67969 c -0.75968,0.44614 -1.37844,1.013 -1.23829,2.31641 l 0.11912,4.01165 c 4.10419,7.22701 21.94009,7.1194 25.74609,0.0899 l 0.30277,-4.50585 c -0.0824,-0.82949 -0.41838,-1.5736 -1.39066,-2.10353 6.21108,11.22358 -29.72196,9.9136 -23.53903,0.19142 z"
         id="path7638"
         sodipodi:nodetypes="ccccccc" />
      <path
         style="fill:#27213c;fill-opacity:1;stroke:none;stroke-width:0.264583px;stroke-linecap:butt;stroke-linejoin:miter;stroke-opacity:1"
         d="m 45.726311,4.1113266 c 5.1278,-2.0638813 10.97572,-0.9635573 14.33415,0.085879"
         id="path9374"
         sodipodi:nodetypes="cc" />
      <path
         style="fill:#27213c;fill-opacity:1;stroke:none;stroke-width:0.264583px;stroke-linecap:butt;stroke-linejoin:miter;stroke-opacity:1"
         d="m 48.254321,4.1408926 c 0.30807,-0.4250605 2.22428,-0.5870041 3.29886,-0.7092643 2.31507,0.02372 4.89814,0.456626 5.61099,0.7187205 -0.5666,0.6166101 -4.74968,0.7997341 -5.7825,0.7389448 -1.8753,0.03512 -2.52993,-0.5329331 -3.12735,-0.748401 z"
         id="path9466"
         sodipodi:nodetypes="ccccc" />
      <path
         style="fill:#27213c;fill-opacity:1;stroke:none;stroke-width:0.264583px;stroke-linecap:butt;stroke-linejoin:miter;stroke-opacity:1"
         d="m 46.987991,8.3571308 -1.32298,-0.7352125 0.0613,-3.5105917 c 5.0025,3.070303 9.77523,1.3687452 14.33415,0.085879 l -0.22223,3.6763139 -0.95988,0.4381939 c -4.47484,2.3461176 -7.68263,2.3837576 -11.89036,0.045417 z"
         id="path9866"
         sodipodi:nodetypes="scccccs" />
    </g>
  </g>
</svg>
