<?xml version="1.0" encoding="UTF-8" standalone="no"?>
<!-- Created with Inkscape (http://www.inkscape.org/) -->

<svg
   width="78.600121mm"
   height="117.19991mm"
   viewBox="0 0 78.600118 117.19993"
   version="1.1"
   id="svg5"
   sodipodi:docname="branch-icon.svg"
   inkscape:version="1.1.2 (b8e25be833, 2022-02-05)"
   xmlns:inkscape="http://www.inkscape.org/namespaces/inkscape"
   xmlns:sodipodi="http://sodipodi.sourceforge.net/DTD/sodipodi-0.dtd"
   xmlns:xlink="http://www.w3.org/1999/xlink"
   xmlns="http://www.w3.org/2000/svg"
   xmlns:svg="http://www.w3.org/2000/svg">
  <sodipodi:namedview
     id="namedview7"
     pagecolor="#ffffff"
     bordercolor="#666666"
     borderopacity="1.0"
     inkscape:pageshadow="2"
     inkscape:pageopacity="0.0"
     inkscape:pagecheckerboard="0"
     inkscape:document-units="mm"
     showgrid="false"
     units="mm"
     width="37.60012mm"
     height="117.19991mm"
     inkscape:zoom="1.2810466"
     inkscape:rotation="-1"
     inkscape:cx="-126.80066"
     inkscape:cy="175.01254"
     inkscape:window-width="1920"
     inkscape:window-height="1009"
     inkscape:window-x="-8"
     inkscape:window-y="-8"
     inkscape:window-maximized="1"
     inkscape:current-layer="layer1" />
  <defs
     id="defs2">
    <linearGradient
       inkscape:collect="always"
       id="linearGradient29782">
      <stop
         style="stop-color:#d00000;stop-opacity:1;"
         offset="0"
         id="stop29778" />
      <stop
         style="stop-color:#d00000;stop-opacity:0;"
         offset="1"
         id="stop29780" />
    </linearGradient>
    <linearGradient
       inkscape:collect="always"
       id="linearGradient24999">
      <stop
         style="stop-color:#000000;stop-opacity:1;"
         offset="0"
         id="stop24995" />
      <stop
         style="stop-color:#000000;stop-opacity:0;"
         offset="1"
         id="stop24997" />
    </linearGradient>
    <linearGradient
       inkscape:collect="always"
       id="linearGradient24922">
      <stop
         style="stop-color:#d00000;stop-opacity:1;"
         offset="0"
         id="stop24918" />
      <stop
         style="stop-color:#d00000;stop-opacity:0;"
         offset="1"
         id="stop24920" />
    </linearGradient>
    <linearGradient
       id="linearGradient24431"
       inkscape:swatch="solid">
      <stop
         style="stop-color:#000000;stop-opacity:1;"
         offset="0"
         id="stop24429" />
    </linearGradient>
    <linearGradient
       id="linearGradient3259"
       inkscape:swatch="solid">
      <stop
         style="stop-color:#000000;stop-opacity:1;"
         offset="0"
         id="stop3257" />
    </linearGradient>
    <linearGradient
       inkscape:collect="always"
       xlink:href="#linearGradient24922"
       id="linearGradient24924"
       x1="36.34544"
       y1="119.31768"
       x2="69.707451"
       y2="119.31768"
       gradientUnits="userSpaceOnUse" />
    <linearGradient
       inkscape:collect="always"
       xlink:href="#linearGradient24999"
       id="linearGradient25003"
       x1="36.34544"
       y1="119.31768"
       x2="69.707451"
       y2="119.31768"
       gradientUnits="userSpaceOnUse" />
    <linearGradient
       inkscape:collect="always"
       xlink:href="#linearGradient29782"
       id="linearGradient29784"
       x1="36.34544"
       y1="119.31768"
       x2="69.707451"
       y2="119.31768"
       gradientUnits="userSpaceOnUse" />
    <linearGradient
       inkscape:collect="always"
       xlink:href="#linearGradient29782"
       id="linearGradient889"
       gradientUnits="userSpaceOnUse"
       x1="36.34544"
       y1="119.31768"
       x2="69.707451"
       y2="119.31768" />
    <linearGradient
       inkscape:collect="always"
       xlink:href="#linearGradient29782"
       id="linearGradient891"
       gradientUnits="userSpaceOnUse"
       x1="36.34544"
       y1="119.31768"
       x2="69.707451"
       y2="119.31768" />
    <linearGradient
       inkscape:collect="always"
       xlink:href="#linearGradient29782"
       id="linearGradient893"
       gradientUnits="userSpaceOnUse"
       x1="36.34544"
       y1="119.31768"
       x2="69.707451"
       y2="119.31768" />
    <linearGradient
       inkscape:collect="always"
       xlink:href="#linearGradient29782"
       id="linearGradient895"
       gradientUnits="userSpaceOnUse"
       x1="36.34544"
       y1="119.31768"
       x2="69.707451"
       y2="119.31768" />
    <linearGradient
       inkscape:collect="always"
       xlink:href="#linearGradient29782"
       id="linearGradient897"
       gradientUnits="userSpaceOnUse"
       x1="36.34544"
       y1="119.31768"
       x2="69.707451"
       y2="119.31768" />
    <linearGradient
       inkscape:collect="always"
       xlink:href="#linearGradient29782"
       id="linearGradient899"
       gradientUnits="userSpaceOnUse"
       x1="36.34544"
       y1="119.31768"
       x2="69.707451"
       y2="119.31768" />
    <linearGradient
       inkscape:collect="always"
       xlink:href="#linearGradient29782"
       id="linearGradient901"
       gradientUnits="userSpaceOnUse"
       x1="36.34544"
       y1="119.31768"
       x2="69.707451"
       y2="119.31768" />
    <linearGradient
       inkscape:collect="always"
       xlink:href="#linearGradient29782"
       id="linearGradient903"
       gradientUnits="userSpaceOnUse"
       x1="36.34544"
       y1="119.31768"
       x2="69.707451"
       y2="119.31768" />
    <linearGradient
       inkscape:collect="always"
       xlink:href="#linearGradient29782"
       id="linearGradient905"
       gradientUnits="userSpaceOnUse"
       x1="36.34544"
       y1="119.31768"
       x2="69.707451"
       y2="119.31768" />
    <linearGradient
       inkscape:collect="always"
       xlink:href="#linearGradient29782"
       id="linearGradient907"
       gradientUnits="userSpaceOnUse"
       x1="36.34544"
       y1="119.31768"
       x2="69.707451"
       y2="119.31768" />
    <linearGradient
       inkscape:collect="always"
       xlink:href="#linearGradient29782"
       id="linearGradient909"
       gradientUnits="userSpaceOnUse"
       x1="36.34544"
       y1="119.31768"
       x2="69.707451"
       y2="119.31768" />
    <linearGradient
       inkscape:collect="always"
       xlink:href="#linearGradient29782"
       id="linearGradient911"
       gradientUnits="userSpaceOnUse"
       x1="36.34544"
       y1="119.31768"
       x2="69.707451"
       y2="119.31768" />
    <linearGradient
       inkscape:collect="always"
       xlink:href="#linearGradient29782"
       id="linearGradient913"
       gradientUnits="userSpaceOnUse"
       x1="36.34544"
       y1="119.31768"
       x2="69.707451"
       y2="119.31768" />
    <linearGradient
       inkscape:collect="always"
       xlink:href="#linearGradient29782"
       id="linearGradient915"
       gradientUnits="userSpaceOnUse"
       x1="36.34544"
       y1="119.31768"
       x2="69.707451"
       y2="119.31768" />
    <linearGradient
       inkscape:collect="always"
       xlink:href="#linearGradient29782"
       id="linearGradient917"
       gradientUnits="userSpaceOnUse"
       x1="36.34544"
       y1="119.31768"
       x2="69.707451"
       y2="119.31768" />
    <linearGradient
       inkscape:collect="always"
       xlink:href="#linearGradient29782"
       id="linearGradient919"
       gradientUnits="userSpaceOnUse"
       x1="36.34544"
       y1="119.31768"
       x2="69.707451"
       y2="119.31768" />
    <linearGradient
       inkscape:collect="always"
       xlink:href="#linearGradient29782"
       id="linearGradient921"
       gradientUnits="userSpaceOnUse"
       x1="36.34544"
       y1="119.31768"
       x2="69.707451"
       y2="119.31768" />
    <linearGradient
       inkscape:collect="always"
       xlink:href="#linearGradient24999"
       id="linearGradient923"
       gradientUnits="userSpaceOnUse"
       x1="36.34544"
       y1="119.31768"
       x2="69.707451"
       y2="119.31768" />
    <linearGradient
       inkscape:collect="always"
       xlink:href="#linearGradient24922"
       id="linearGradient925"
       gradientUnits="userSpaceOnUse"
       x1="36.34544"
       y1="119.31768"
       x2="69.707451"
       y2="119.31768" />
  </defs>
  <g
     inkscape:label="Layer 1"
     inkscape:groupmode="layer"
     id="layer1">
    <g
       id="path25168" />
    <g
       id="path25204"
       transform="translate(0.11022992)" />
    <g
       id="path25476"
       transform="translate(0.22241518)" />
    <g
       id="path25478"
       transform="translate(0.33459639)" />
    <g
       id="path25480"
       transform="translate(0.44677358)" />
    <g
       id="path25482"
       transform="translate(0.55895479)" />
    <g
       id="path25484"
       transform="translate(0.67114198)" />
    <g
       id="path25486"
       transform="translate(0.78332934)" />
    <g
       id="path25488"
       transform="translate(0.89551653)" />
    <g
       id="path25490"
       transform="translate(1.0077139)" />
    <g
       id="path25492"
       transform="translate(1.1199072)" />
    <g
       id="path25494"
       transform="translate(1.2321046)" />
    <g
       id="path25496"
       transform="translate(1.3442818)" />
    <g
       id="path25498"
       transform="translate(1.4564791)" />
    <g
       id="path25500"
       transform="translate(1.5686563)" />
    <g
       id="path25502"
       transform="translate(1.6808375)" />
    <g
       id="g26588"
       transform="translate(78.683645,0.07784021)" />
    <g
       id="g26594"
       transform="translate(78.793872,0.07784021)" />
    <g
       id="g26600"
       transform="translate(78.906049,0.07784021)" />
    <g
       id="g26606"
       transform="translate(79.01823,0.07784021)" />
    <g
       id="g26612"
       transform="translate(79.130408,0.07784021)" />
    <g
       id="g26618"
       transform="translate(79.242589,0.07784021)" />
    <g
       id="g26624"
       transform="translate(79.354776,0.07784021)" />
    <g
       id="g26630"
       transform="translate(79.466963,0.07784021)" />
    <g
       id="g26636"
       transform="translate(79.57915,0.07784021)" />
    <g
       id="g26642"
       transform="translate(79.691348,0.07784021)" />
    <g
       id="g26648"
       transform="translate(79.803541,0.07784021)" />
    <g
       id="g26654"
       transform="translate(79.915739,0.07784021)" />
    <g
       id="g26660"
       transform="translate(80.027916,0.07784021)" />
    <g
       id="g26666"
       transform="translate(80.140113,0.07784021)" />
    <g
       id="g26672"
       transform="translate(80.252274,0.07784021)" />
    <g
       id="g26678"
       transform="translate(32.257743,3.1364273)" />
    <g
       id="g24848"
       style="fill:url(#linearGradient25003);fill-opacity:1;stroke:url(#linearGradient24924);stroke-opacity:1"
       transform="translate(-13.726384,-60.717722)">
      <g
         id="g29431"
         style="fill:url(#linearGradient923);stroke:url(#linearGradient925)">
        <g
           id="g28483"
           style="fill:#ff0000;fill-opacity:1;stroke:url(#linearGradient29784);stroke-opacity:1">
          <path
             style="color:#000000;fill:#ff0000;fill-opacity:1;stroke:url(#linearGradient889);stroke-opacity:1;-inkscape-stroke:none"
             d="m 46.372237,64.473867 -0.0059,0.195313 -0.07617,2.261719 0.06055,0.04102 c 4.251806,2.965042 8.792596,2.584183 13.414056,0.708985 l 0.082,-0.0332 0.041,-2.982422 -0.18164,0.06641 c -4.66683,1.699789 -9.043242,1.642886 -13.154294,-0.179688 z m 0.251953,0.378907 c 4.068377,1.750918 8.409063,1.803756 12.994143,0.175781 l -0.0332,2.431641 c -4.5276,1.820511 -8.896033,2.172424 -13.025396,-0.675782 z"
             id="path869" />
          <path
             style="color:#000000;fill:#ff0000;fill-opacity:1;stroke:url(#linearGradient891);stroke-opacity:1;-inkscape-stroke:none"
             d="m 46.534347,66.790274 -0.216797,0.148437 0.8125,1.183594 c 0.209184,12.737292 -0.809864,18.053267 -2.386719,20.742187 -0.789314,1.345973 -1.714468,2.045704 -2.728516,2.714844 -1.009183,0.665931 -2.107667,1.303654 -3.193359,2.494141 -4.12e-4,4.52e-4 -0.0015,-4.53e-4 -0.002,0 -0.0048,0.0053 -0.0089,0.0064 -0.01367,0.01172 l 0.183594,0.191406 c 0.44513,-0.369462 0.865432,-0.469643 1.298828,-0.396485 0.433396,0.07316 0.885137,0.330738 1.34375,0.712891 0.917226,0.764306 1.853598,2.008401 2.794922,3.099611 l 0.0625,0.0742 0.08984,-0.0391 c 4.770033,-2.040409 9.673723,-1.546834 14.658203,0.0781 l 0.0645,0.0195 0.0547,-0.0391 c 1.19544,-0.87495 2.37873,-1.777071 3.59766,-2.369142 1.21892,-0.592071 2.46558,-0.876601 3.8125,-0.53125 l 0.0312,-0.126953 0.0625,-0.117188 c -3.66389,-1.943773 -5.7439,-5.527811 -6.84567,-10.097507 -1.09922,-4.559118 -1.2148,-10.091078 -0.95117,-15.898438 l 0.75781,-1.007812 -0.21093,-0.160156 -0.78516,1.042968 0.10742,0.07813 -0.13281,-0.0059 c -0.26652,5.833216 -0.15322,11.400716 0.95898,16.013672 1.071,4.442058 3.11313,7.970954 6.60547,10.003906 -1.23877,-0.192593 -2.41426,0.02865 -3.52539,0.56836 -1.23419,0.599487 -2.4095,1.49673 -3.58398,2.35742 -4.9634,-1.608549 -9.889883,-2.096497 -14.683597,-0.0801 -0.914096,-1.065932 -1.833946,-2.285171 -2.771484,-3.066403 -0.4785,-0.398724 -0.963081,-0.686455 -1.466797,-0.771484 -0.272933,-0.04607 -0.545812,0.155594 -0.820313,0.246093 0.891979,-0.844833 1.788658,-1.498398 2.646485,-2.064453 1.023184,-0.675169 1.9975,-1.411009 2.8125,-2.800781 1.629999,-2.779544 2.636269,-8.13441 2.423828,-20.917969 l -0.002,-0.03906 z"
             id="path871" />
          <path
             style="color:#000000;fill:#ff0000;fill-opacity:1;stroke:url(#linearGradient893);stroke-opacity:1;-inkscape-stroke:none"
             d="m 53.128093,63.477774 c -2.224195,-0.02742 -4.450153,0.333121 -6.671871,1.070312 l 0.08398,0.251953 c 4.392201,-1.45738 8.774311,-1.424 13.166021,0.179688 l 0.0918,-0.248047 c -2.22197,-0.811378 -4.44573,-1.226491 -6.66993,-1.253906 z"
             id="path1951" />
          <path
             id="path2188"
             style="fill:#ff0000;fill-opacity:1;stroke:url(#linearGradient895);stroke-width:0.3;stroke-linecap:round;stroke-linejoin:round;stroke-opacity:1;paint-order:markers stroke fill"
             d="m 56.982847,64.830429 a 3.9242003,0.55506784 0 0 1 -3.9242,0.555068 3.9242003,0.55506784 0 0 1 -3.9242,-0.555068 3.9242003,0.55506784 0 0 1 3.9242,-0.555068 3.9242003,0.55506784 0 0 1 3.9242,0.555068 z" />
          <path
             style="color:#000000;fill:#ff0000;fill-opacity:1;stroke:url(#linearGradient897);stroke-opacity:1;-inkscape-stroke:none"
             d="m 39.0363,94.16918 -0.263672,0.0098 0.21875,6.89257 0.01367,0.0273 c 1.515222,2.97127 3.67657,3.65609 5.863281,4.01367 4.737789,1.21391 9.473144,1.40068 14.148444,0.28906 h 0.002 0.002 c 2.46012,-0.67613 4.95466,-1.38841 8.00196,-3.59961 l 0.0566,-0.0391 -0.14844,-7.007809 -0.26367,0.0059 0.14257,6.859369 c -2.98568,2.15204 -5.41745,2.85426 -7.85937,3.52539 -4.63165,1.10052 -9.320294,0.91398 -14.025393,-0.29297 h -0.0059 l -0.0059,-0.002 c -2.157825,-0.35267 -4.183655,-0.97661 -5.660156,-3.85547 z"
             id="path2245" />
          <path
             style="color:#000000;fill:#ff0000;fill-opacity:1;stroke:url(#linearGradient899);stroke-opacity:1;-inkscape-stroke:none"
             d="m 44.659347,97.59887 -0.263672,0.0137 0.365234,7.375 0.263672,-0.0117 z"
             id="path2717" />
          <path
             style="color:#000000;fill:#ff0000;fill-opacity:1;stroke:url(#linearGradient901);stroke-opacity:1;-inkscape-stroke:none"
             d="m 59.145673,97.67504 -0.21875,7.66797 0.26367,0.008 0.21875,-7.66797 z"
             id="path2771" />
          <g
             id="path2825"
             style="fill:#ff0000;fill-opacity:1;stroke:url(#linearGradient907);stroke-opacity:1"
             transform="translate(-49.086747,-3.45582)">
            <path
               style="color:#000000;fill:#ff0000;fill-opacity:1;stroke:url(#linearGradient903);stroke-width:0;stroke-linecap:round;stroke-opacity:1;-inkscape-stroke:none"
               d="m 101.55686,112.43085 c 5.19486,-0.0949 16.85202,-0.52745 13.5472,-6.09591 -3.15728,2.01864 -7.55667,3.36572 -13.8481,3.34169 -4.847298,-0.0185 -10.936032,-0.80099 -12.418798,-3.62146 -3.9879,6.00108 7.706056,6.46724 12.719698,6.37568 z"
               id="path22822" />
            <path
               style="color:#000000;fill:#ff0000;fill-opacity:1;stroke:url(#linearGradient905);stroke-linecap:round;stroke-opacity:1;-inkscape-stroke:none"
               d="m 101.55686,112.43085 c 5.19485,-0.0949 16.85202,-0.52746 13.5472,-6.09591 -3.15728,2.01864 -7.55668,3.36572 -13.8481,3.34169 -4.847293,-0.0185 -10.936033,-0.80099 -12.418798,-3.62146 -3.987896,6.00107 7.706061,6.46724 12.719698,6.37568 z"
               id="path22824" />
          </g>
          <path
             style="color:#000000;fill:#ff0000;fill-opacity:1;stroke:url(#linearGradient909);stroke-width:1;stroke-miterlimit:4;stroke-dasharray:none;stroke-opacity:1"
             d="m 52.226353,111.67599 c 3.7624,-0.18532 8.34529,-0.52788 11.5246,-1.57859 3.17932,-1.0507 4.95506,-2.80954 3.10315,-5.82743 0.31282,4.48918 -9.12319,4.88259 -14.54887,4.88236 -3.682579,-0.073 -13.647087,0.48262 -13.600424,-4.73288 -2.349877,2.97842 0.107675,4.78258 3.614113,5.84713 3.506439,1.06455 8.061764,1.38948 9.907431,1.40941 z"
             id="path12771"
             sodipodi:nodetypes="cscccsc" />
          <path
             style="color:#000000;fill:#ff0000;fill-opacity:1;stroke:url(#linearGradient911);stroke-opacity:1;-inkscape-stroke:none"
             d="m 63.296063,110.10277 -0.16015,0.0371 c -7.34535,1.66904 -14.205516,2.04899 -20.173832,0.0469 l -0.173828,-0.0586 v 0.1836 l -0.949219,39.20898 c -0.07001,1.28582 -0.515537,2.14931 -1.564453,3.11914 l -0.03906,0.0371 -0.002,0.0547 c -0.04301,0.97799 0.339452,1.82895 1.027344,2.5332 0.687893,0.70426 1.677937,1.26845 2.865235,1.70899 2.374594,0.88108 5.548073,1.26506 8.722663,1.19531 3.17458,-0.0697 6.34789,-0.59269 8.72265,-1.54492 1.18739,-0.47612 2.17669,-1.05958 2.86524,-1.75586 0.68854,-0.69628 1.07414,-1.51275 1.0332,-2.42774 l -0.002,-0.0586 -0.0449,-0.0371 c -0.81487,-0.68797 -1.23561,-1.87896 -1.41211,-3.40625 v -0.006 z m -0.25976,0.32422 0.70898,38.52149 0.002,0.008 c 0.17465,1.52748 0.60241,2.75216 1.45508,3.51562 0.0307,0.82591 -0.30928,1.55789 -0.95508,2.21094 -0.65119,0.65851 -1.61033,1.22815 -2.77539,1.69531 -2.33011,0.93433 -5.47962,1.45815 -8.6289,1.52735 -3.149288,0.0692 -6.299186,-0.31671 -8.625003,-1.17969 -1.162908,-0.43149 -2.119087,-0.98062 -2.767578,-1.64453 -0.640416,-0.65565 -0.97706,-1.41792 -0.947265,-2.30664 1.036693,-0.97832 1.528767,-1.92479 1.599609,-3.24219 v -0.002 l 0.947266,-39.05469 c 5.952275,1.94803 12.742601,1.58017 19.986331,-0.0488 z"
             id="path15370" />
          <path
             style="color:#000000;fill:#ff0000;fill-opacity:1;stroke:url(#linearGradient913);stroke-opacity:1;-inkscape-stroke:none"
             d="m 52.464033,161.23936 c 10.13081,0.47868 24.06063,-6.48262 12.18572,-11.39549 6.91995,6.70483 -5.81488,9.55334 -12.1447,8.86437 -6.78016,1.0528 -18.31901,-3.24382 -10.977992,-8.81071 -11.34362,5.61311 0.13817,11.38923 10.936972,11.34183 z"
             id="path16340"
             sodipodi:nodetypes="ccccc" />
          <path
             style="color:#000000;fill:#ff0000;fill-opacity:1;stroke:url(#linearGradient915);stroke-opacity:1;-inkscape-stroke:none"
             d="m 66.403483,158.0266 -0.17578,0.0937 c -8.67237,4.58105 -17.557957,4.98624 -26.777341,0.10352 l -0.193359,-0.10352 v 0.21875 l -0.02734,3.35352 0.06445,0.0391 c 6.261673,3.81832 12.13767,4.4345 16.92578,3.76953 4.78811,-0.66497 8.48844,-2.60717 10.42774,-3.90234 l 0.0644,-0.043 z m -0.23046,0.39844 0.26171,2.99023 c -1.92423,1.27658 -5.5534,3.17169 -10.25195,3.82422 -4.72013,0.65553 -10.502684,0.0496 -16.687499,-3.70117 l 0.02344,-3.00586 c 9.156158,4.77843 18.037249,4.38651 26.654299,-0.10742 z"
             id="path19172" />
          <path
             style="color:#000000;fill:#ff0000;fill-opacity:1;stroke:url(#linearGradient917);stroke-opacity:1;-inkscape-stroke:none"
             d="m 64.915203,162.68285 -0.22461,0.125 c -7.69674,4.27277 -15.517803,4.04915 -23.023434,0.18164 l -0.193359,-0.0996 v 0.2168 c -0.01175,1.24425 0.05835,1.87964 0.05078,2.38477 -0.0076,0.50554 -0.08684,0.8894 -0.40625,1.6914 l -0.04102,0.10547 0.0957,0.0566 c 7.862461,4.80446 16.008453,4.46122 23.865233,0.0762 l 0.0937,-0.0527 -0.0312,-0.10156 c -0.1242,-0.40581 -0.27406,-0.61728 -0.34766,-1.16407 -0.0736,-0.54678 -0.0712,-1.43814 0.13282,-3.16211 z m -0.30273,0.44141 c -0.16731,1.51838 -0.19655,2.4676 -0.12305,3.01367 0.0714,0.53015 0.21366,0.7741 0.32422,1.09375 -7.73645,4.28443 -15.689298,4.61264 -23.419921,-0.0742 0.272531,-0.71167 0.387107,-1.16688 0.394531,-1.66211 0.0073,-0.48975 -0.04466,-1.14662 -0.04492,-2.19531 7.443447,3.77019 15.2342,3.98293 22.86914,-0.17578 z"
             id="path19606" />
          <path
             style="color:#000000;fill:#ff0000;fill-opacity:1;stroke:url(#linearGradient919);stroke-opacity:1;-inkscape-stroke:none"
             d="m 41.356612,162.9602 -0.15625,0.0488 c -0.591823,0.18515 -0.968757,0.48604 -1.179687,0.90039 -0.21093,0.41436 -0.25899,0.92531 -0.253906,1.53907 l -0.03125,4.33789 0.01367,0.0293 c 0.807822,1.58272 2.508263,2.85642 4.675782,3.76563 2.167519,0.9092 4.808851,1.45314 7.515622,1.55859 5.41355,0.2109 11.10984,-1.32973 13.78516,-5.31054 l 0.0195,-0.0293 0.30469,-4.54688 -1.39258,-2.0625 -0.0898,0.23829 c -0.52402,1.37714 -0.43295,2.65586 0.24414,3.79882 -3.99973,1.91296 -7.91336,3.33052 -11.81055,3.52344 -3.909042,0.19351 -7.804101,-0.83771 -11.779297,-3.81445 0.119882,-0.21261 0.226028,-0.46748 0.263672,-0.98828 0.04286,-0.59294 0.019,-1.46822 -0.113282,-2.82618 z m -0.238281,0.42187 c 0.103905,1.16266 0.141037,2.02775 0.103516,2.54688 -0.04098,0.56689 -0.142301,0.82795 -0.25586,0.99609 l -0.07031,0.10547 0.09961,0.0742 c 4.041631,3.04813 8.031385,4.10749 12.017576,3.91015 3.98619,-0.19733 7.96681,-1.64438 12.01758,-3.58984 l 0.13476,-0.0645 -0.0801,-0.12696 c -0.66085,-1.02508 -0.71891,-2.16022 -0.32032,-3.41015 l 1.01563,1.50195 -0.29297,4.37305 c -2.60163,3.84698 -8.19067,5.38601 -13.53711,5.17773 -2.67799,-0.10433 -5.290319,-0.64494 -7.421873,-1.53906 -2.123361,-0.89068 -3.760183,-2.1352 -4.529297,-3.62695 l 0.03125,-4.26368 v -0.002 c -0.005,-0.59774 0.04856,-1.0644 0.226563,-1.41406 0.149872,-0.29441 0.464607,-0.48346 0.861328,-0.64844 z"
             id="path20192" />
          <path
             style="color:#000000;fill:#ff0000;fill-opacity:1;stroke:url(#linearGradient921);stroke-opacity:1;-inkscape-stroke:none"
             d="m 65.782393,165.28441 c -0.0505,1.47899 -1.2904,2.73616 -3.26562,3.66602 -1.97523,0.92986 -4.6659,1.51976 -7.52539,1.66797 -5.718998,0.29642 -12.10632,-1.1793 -14.896489,-5.07422 l -0.214844,0.1543 c 2.882383,4.02365 9.350973,5.48286 15.125003,5.18359 2.88701,-0.14964 5.6032,-0.74055 7.62304,-1.69141 2.01985,-0.95085 3.36454,-2.27567 3.41993,-3.89648 z"
             id="path22119" />
        </g>
      </g>
    </g>
  </g>
</svg>
