<?xml version="1.0" encoding="UTF-8" standalone="no"?>
<!-- Created with Inkscape (http://www.inkscape.org/) -->

<svg
   width="372.70047"
   height="322.51935"
   viewBox="0 0 98.610426 85.333266"
   version="1.1"
   id="svg5"
   inkscape:version="1.1.2 (b8e25be833, 2022-02-05)"
   sodipodi:docname="ce-mark.svg"
   xmlns:inkscape="http://www.inkscape.org/namespaces/inkscape"
   xmlns:sodipodi="http://sodipodi.sourceforge.net/DTD/sodipodi-0.dtd"
   xmlns="http://www.w3.org/2000/svg"
   xmlns:svg="http://www.w3.org/2000/svg">
  <sodipodi:namedview
     id="namedview7"
     pagecolor="#ffffff"
     bordercolor="#666666"
     borderopacity="1.0"
     inkscape:pageshadow="2"
     inkscape:pageopacity="0.0"
     inkscape:pagecheckerboard="0"
     inkscape:document-units="px"
     showgrid="false"
     units="px"
     inkscape:zoom="0.64052329"
     inkscape:cx="186.56621"
     inkscape:cy="276.33656"
     inkscape:window-width="1920"
     inkscape:window-height="1009"
     inkscape:window-x="-8"
     inkscape:window-y="-8"
     inkscape:window-maximized="1"
     inkscape:current-layer="layer1" />
  <defs
     id="defs2" />
  <g
     inkscape:label="Layer 1"
     inkscape:groupmode="layer"
     id="layer1">
    <g
       id="g11986"
       transform="translate(-26.458344,-68.791703)">
      <path
         style="fill:#27213c;fill-opacity:1;stroke:none;stroke-width:0.264583px;stroke-linecap:butt;stroke-linejoin:miter;stroke-opacity:1"
         d="M 123.87467,70.352269 V 80.42901 c -15.993,-0.911435 -25.085669,8.536773 -27.168044,19.047808 l 19.864064,0.02054 v 10.309252 l -19.798519,-0.12629 c 5.684739,21.76396 27.102499,19.07758 27.102499,19.07758 v 10.11686 c -51.376068,0.36446 -49.034393,-70.076706 0,-68.522491 z"
         id="path1254"
         sodipodi:nodetypes="ccccccccc" />
      <path
         style="fill:#27213c;fill-opacity:1;stroke:none;stroke-width:0.264583px;stroke-linecap:butt;stroke-linejoin:miter;stroke-opacity:1"
         d="M 65.354924,128.7661 C 29.635601,131.084 27.169002,79.307702 65.427534,80.390162 V 70.204201 c -49.551797,-0.826147 -50.978718,69.933779 0.0011,68.797369 z"
         id="path1966"
         sodipodi:nodetypes="ccccc" />
      <g
         aria-label="CERTIFIED"
         id="text5753"
         style="font-style:italic;font-weight:bold;font-size:12.7px;line-height:1.25;-inkscape-font-specification:'sans-serif Bold Italic';letter-spacing:0px;fill:#27213c;fill-opacity:1;stroke:none;stroke-width:0.264583">
        <path
           d="m 45.816959,152.98342 q -1.029395,0 -1.90376,-0.30385 -0.868164,-0.30386 -1.494483,-0.90538 -0.626318,-0.60151 -0.973584,-1.50068 -0.341064,-0.89917 -0.341064,-2.07739 0,-1.09761 0.328662,-1.99058 0.328662,-0.89297 0.954981,-1.53169 0.601513,-0.61391 1.488281,-0.94878 0.892969,-0.33486 1.947168,-0.33486 0.58291,0 1.047998,0.0682 0.471289,0.062 0.868164,0.16743 0.415478,0.11783 0.750342,0.26666 0.341064,0.14262 0.595312,0.26665 v 2.23862 h -0.272851 q -0.173633,-0.14883 -0.440284,-0.35347 -0.260449,-0.20464 -0.595312,-0.40307 -0.341065,-0.19844 -0.73794,-0.33487 -0.396875,-0.13642 -0.84956,-0.13642 -0.502295,0 -0.954981,0.16123 -0.452685,0.15503 -0.837158,0.5209 -0.365869,0.35346 -0.595312,0.93637 -0.223242,0.58291 -0.223242,1.41387 0,0.86816 0.241845,1.45107 0.248047,0.58291 0.620117,0.91778 0.378272,0.34106 0.84336,0.48989 0.465088,0.14263 0.917773,0.14263 0.434082,0 0.855762,-0.13023 0.427881,-0.13022 0.787549,-0.35346 0.303857,-0.17984 0.564306,-0.38448 0.26045,-0.20464 0.427881,-0.35346 h 0.248047 v 2.20761 q -0.347266,0.15503 -0.663525,0.29146 -0.31626,0.13642 -0.663526,0.23564 -0.452685,0.13023 -0.84956,0.19844 -0.396875,0.0682 -1.091406,0.0682 z"
           style="font-style:normal;-inkscape-font-specification:'sans-serif Bold';fill:#27213c;fill-opacity:1;stroke:none"
           id="path11793" />
        <path
           d="m 57.512369,152.80359 h -6.678662 v -9.23355 h 6.678662 v 1.78594 h -4.309815 v 1.5937 h 3.999756 v 1.78594 h -3.999756 v 2.28203 h 4.309815 z"
           style="font-style:normal;-inkscape-font-specification:'sans-serif Bold';fill:#27213c;fill-opacity:1;stroke:none"
           id="path11795" />
        <path
           d="m 64.687124,146.39778 q 0,-0.34727 -0.142627,-0.59531 -0.142627,-0.24805 -0.489892,-0.39068 -0.241846,-0.0992 -0.564307,-0.11782 -0.322461,-0.0248 -0.750342,-0.0248 h -0.861963 v 2.48667 h 0.731739 q 0.570507,0 0.95498,-0.0558 0.384473,-0.0558 0.644922,-0.25424 0.248047,-0.19224 0.359668,-0.42168 0.117822,-0.23565 0.117822,-0.62632 z m 3.714502,6.40581 h -2.90835 l -2.517675,-3.38584 h -1.097608 v 3.38584 h -2.368847 v -9.23355 H 63.5027 q 0.818555,0 1.407666,0.093 0.589112,0.093 1.103809,0.40308 0.520898,0.31006 0.824756,0.80615 0.310058,0.48989 0.310058,1.23403 0,1.0232 -0.47749,1.66812 -0.471289,0.64492 -1.351855,1.0728 z"
           style="font-style:normal;-inkscape-font-specification:'sans-serif Bold';fill:#27213c;fill-opacity:1;stroke:none"
           id="path11797" />
        <path
           d="m 76.667789,145.35598 h -2.883545 v 7.44761 h -2.38125 v -7.44761 H 68.51945 v -1.78594 h 8.148339 z"
           style="font-style:normal;-inkscape-font-specification:'sans-serif Bold';fill:#27213c;fill-opacity:1;stroke:none"
           id="path11799" />
        <path
           d="m 83.092201,152.80359 h -5.407422 v -1.63711 h 1.513086 v -5.95933 h -1.513086 v -1.63711 h 5.407422 v 1.63711 h -1.513086 v 5.95933 h 1.513086 z"
           style="font-style:normal;-inkscape-font-specification:'sans-serif Bold';fill:#27213c;fill-opacity:1;stroke:none"
           id="path11801" />
        <path
           d="m 91.649819,145.35598 h -4.247803 v 1.71773 h 3.937744 v 1.78593 h -3.937744 v 3.94395 h -2.368847 v -9.23355 h 6.61665 z"
           style="font-style:normal;-inkscape-font-specification:'sans-serif Bold';fill:#27213c;fill-opacity:1;stroke:none"
           id="path11803" />
        <path
           d="M 98.285072,152.80359 H 92.87765 v -1.63711 h 1.513086 v -5.95933 H 92.87765 v -1.63711 h 5.407422 v 1.63711 h -1.513086 v 5.95933 h 1.513086 z"
           style="font-style:normal;-inkscape-font-specification:'sans-serif Bold';fill:#27213c;fill-opacity:1;stroke:none"
           id="path11805" />
        <path
           d="m 106.9047,152.80359 h -6.67866 v -9.23355 h 6.67866 v 1.78594 h -4.30981 v 1.5937 h 3.99975 v 1.78594 h -3.99975 v 2.28203 h 4.30981 z"
           style="font-style:normal;-inkscape-font-specification:'sans-serif Bold';fill:#27213c;fill-opacity:1;stroke:none"
           id="path11807" />
        <path
           d="m 117.62653,148.19612 q 0,1.28984 -0.58911,2.31304 -0.58911,1.01699 -1.48828,1.56269 -0.67593,0.40928 -1.48208,0.57051 -0.80615,0.16123 -1.90996,0.16123 h -3.25562 v -9.23355 h 3.34863 q 1.12862,0 1.94717,0.19224 0.81856,0.18604 1.37666,0.5333 0.95498,0.58291 1.50069,1.5751 0.5519,0.98599 0.5519,2.32544 z m -2.46186,-0.0186 q 0,-0.91157 -0.33487,-1.55649 -0.32866,-0.65112 -1.048,-1.01699 -0.36587,-0.17984 -0.75034,-0.24185 -0.37827,-0.0682 -1.14721,-0.0682 h -0.60152 v 5.77949 h 0.60152 q 0.84956,0 1.24643,-0.0744 0.39688,-0.0806 0.77515,-0.28526 0.65112,-0.37207 0.95498,-0.99218 0.30386,-0.62632 0.30386,-1.5441 z"
           style="font-style:normal;-inkscape-font-specification:'sans-serif Bold';fill:#27213c;fill-opacity:1;stroke:none"
           id="path11809" />
      </g>
    </g>
  </g>
</svg>
