<?xml version="1.0" encoding="UTF-8" standalone="no"?>
<!-- Created with Inkscape (http://www.inkscape.org/) -->

<svg
   width="316.14172"
   height="387.51968"
   viewBox="0 0 83.64636 102.5319"
   version="1.1"
   id="svg5"
   inkscape:version="1.1.2 (b8e25be833, 2022-02-05)"
   sodipodi:docname="HOSE-REEL-ICON.svg"
   xmlns:inkscape="http://www.inkscape.org/namespaces/inkscape"
   xmlns:sodipodi="http://sodipodi.sourceforge.net/DTD/sodipodi-0.dtd"
   xmlns="http://www.w3.org/2000/svg"
   xmlns:svg="http://www.w3.org/2000/svg">
  <sodipodi:namedview
     id="namedview7"
     pagecolor="#ffffff"
     bordercolor="#666666"
     borderopacity="1.0"
     inkscape:pageshadow="2"
     inkscape:pageopacity="0.0"
     inkscape:pagecheckerboard="0"
     inkscape:document-units="mm"
     showgrid="false"
     inkscape:snap-intersection-paths="true"
     units="px"
     inkscape:zoom="1.2810466"
     inkscape:cx="182.27284"
     inkscape:cy="231.84169"
     inkscape:window-width="1920"
     inkscape:window-height="1009"
     inkscape:window-x="-8"
     inkscape:window-y="-8"
     inkscape:window-maximized="1"
     inkscape:current-layer="layer1"
     height="387.51968px" />
  <defs
     id="defs2" />
  <g
     inkscape:label="Layer 1"
     inkscape:groupmode="layer"
     id="layer1">
    <path
       style="fill:#27213c;fill-opacity:1;stroke:#27213c;stroke-width:1.265;stroke-linecap:butt;stroke-linejoin:miter;stroke-miterlimit:4;stroke-dasharray:none;stroke-opacity:1"
       d="M 42.24751,6.8168544 C -7.0057144,-20.428724 -12.862606,110.43217 38.15829,91.083972 v 0"
       id="path869"
       sodipodi:nodetypes="ccc" />
    <path
       style="fill:#ffffff;stroke:#27213c;stroke-width:1.865;stroke-linecap:butt;stroke-linejoin:miter;stroke-miterlimit:4;stroke-dasharray:none;stroke-opacity:1;fill-opacity:1"
       d="m 78.4537,71.256172 c 1.88219,-7.29826 2.78772,-15.82759 2.45993,-25.2245 C 79.48104,4.9636864 56.11391,-1.0683286 42.24751,6.8168544 22.990268,23.082662 16.396403,67.685672 38.15829,91.083972 c 13.59167,11.056878 26.30056,7.49137 34.28607,-5.25803"
       id="path2351"
       sodipodi:nodetypes="csccc" />
    <path
       style="fill:#ffffff;stroke:#27213c;stroke-width:1.565;stroke-linecap:butt;stroke-linejoin:miter;stroke-miterlimit:4;stroke-dasharray:none;stroke-opacity:1;fill-opacity:1"
       d="m 72.40552,85.917682 v 2.1724 c 1.94761,3.19663 3.97558,2.85784 6.0608,0 v -10.88025 h -6.0608 v 8.70785"
       id="path3241"
       sodipodi:nodetypes="cccccc" />
    <path
       style="fill:#ffffff;stroke:#27213c;stroke-width:1.565;stroke-linecap:butt;stroke-linejoin:miter;stroke-miterlimit:4;stroke-dasharray:none;stroke-opacity:1;fill-opacity:1"
       d="m 72.40552,77.209832 c -1.88347,-0.91468 -1.40638,-1.63264 0,-2.27316 h 5.02024 0.95498 c 2.42536,0.84991 1.12776,1.55662 0.0856,2.27316 z"
       id="path3523"
       sodipodi:nodetypes="cccccc" />
    <path
       style="fill:none;stroke:#27213c;stroke-width:0.264583px;stroke-linecap:butt;stroke-linejoin:miter;stroke-opacity:1"
       d="m 59.00601,69.250452 c -0.59292,-0.53294 -1.63561,-0.9347 0,-2.11763 h 7.22915 c 1.13512,0.70588 0.90395,1.41175 0,2.11763 z"
       id="path4029"
       sodipodi:nodetypes="ccccc" />
    <path
       style="fill:none;stroke:#27213c;stroke-width:0.264583px;stroke-linecap:butt;stroke-linejoin:miter;stroke-opacity:1"
       d="m 59.15205,80.897442 c -3.16352,-1.10132 -0.99247,-1.53581 0,-2.11763 h 6.26162 c 2.7028,0.98548 1.15173,1.53091 0,2.11765 z"
       id="path3821"
       sodipodi:nodetypes="ccccc" />
    <path
       style="fill:#27213c;fill-opacity:1;stroke:#27213c;stroke-width:0.264583px;stroke-linecap:butt;stroke-linejoin:miter;stroke-opacity:1"
       d="m 72.40552,74.936672 c 0.75621,-3.25272 0.90793,-5.61761 -6.99185,3.84314 l 0.82149,-9.52936 c 5.57663,-5.35946 8.9231,-7.91826 10.74044,-8.55674 1.73118,-0.60822 2.07478,0.52611 1.63677,2.64198 l -0.23163,11.60098 z"
       id="path5820"
       sodipodi:nodetypes="cccsccc" />
    <path
       style="fill:#27213c;fill-opacity:1;stroke:#27213c;stroke-width:0.7;stroke-linecap:butt;stroke-linejoin:miter;stroke-miterlimit:4;stroke-dasharray:none;stroke-opacity:1"
       d="M 41.48809,6.9086344 C 16.183922,-3.2498976 8.4124596,18.280672 3.2227076,44.545502 3.3948806,75.657282 12.955099,97.002022 37.06893,90.990482 5.3221776,46.780612 40.15681,5.7318904 41.48809,6.9086344 Z"
       id="path27986"
       sodipodi:nodetypes="cccc" />
    <path
       style="opacity:1;fill:#27213c;fill-opacity:1;stroke:#27213c;stroke-width:0.264583px;stroke-linecap:butt;stroke-linejoin:miter;stroke-opacity:1"
       d="m 75.29341,61.604592 c 1.07065,-4.18952 1.65799,-8.06078 1.71248,-10.9747 0.48595,-25.9861 -11.81528,-40.460056 -23.95116,-40.454056 -25.8958,0.0128 -29.206986,51.388776 -18.83962,66.595866 11.42851,16.76361 21.20958,16.37383 28.52404,9.39917 0.90694,-0.8648 1.77595,-1.83084 2.60548,-2.87796 2.41497,-3.04844 4.4953,-6.78414 6.20247,-10.71002"
       id="path7613"
       sodipodi:nodetypes="csssssc" />
    <path
       style="opacity:1;fill:#ffffff;fill-opacity:1;stroke:#27213c;stroke-width:0.265;stroke-linecap:butt;stroke-linejoin:miter;stroke-miterlimit:4;stroke-dasharray:none;stroke-opacity:1"
       d="m 59.00601,67.132822 c 1.28843,-8.53402 -2.07564,-10.9201 -6.17034,-12.34069 -1.54752,-4.98994 0.65465,-7.06346 3.43202,-8.68959 7.08036,1.89038 12.37023,8.68712 9.96747,21.03028 z"
       id="path4031"
       sodipodi:nodetypes="ccccc" />
    <path
       style="fill:#ffffff;fill-opacity:1;stroke:#27213c;stroke-width:0.264583px;stroke-linecap:butt;stroke-linejoin:miter;stroke-opacity:1"
       d="m 59.15205,78.779812 -0.14604,-9.52936 h 7.22915 l -0.82151,9.52936 z"
       id="path4027"
       sodipodi:nodetypes="ccccc" />
    <path
       style="fill:#ffffff;fill-opacity:1;stroke:#27213c;stroke-width:1.165;stroke-linecap:butt;stroke-linejoin:miter;stroke-miterlimit:4;stroke-dasharray:none;stroke-opacity:1"
       d="m 59.26158,80.897442 h 6.09732 v 5.18454 h -6.09732 z"
       id="path3729"
       sodipodi:nodetypes="ccccc" />
    <path
       style="fill:#ffffff;fill-opacity:1;stroke:#27213c;stroke-width:0.264583px;stroke-linecap:butt;stroke-linejoin:miter;stroke-opacity:1"
       d="m 57.64884,59.266452 c -4.54035,-0.85633 -5.89799,-2.1124 -6.84167,-4.91196 -1.06991,-3.17403 0.30701,-6.8968 2.50224,-8.68158 3.17037,-2.57759 7.33462,0.99279 6.85008,1.57485 -7.56705,-6.70357 -14.35439,9.17994 -2.51065,12.01869 z"
       id="path15899"
       sodipodi:nodetypes="csscc" />
    <path
       style="fill:#ffffff;fill-opacity:1;stroke:#27213c;stroke-width:1.165;stroke-linecap:butt;stroke-linejoin:miter;stroke-miterlimit:4;stroke-dasharray:none;stroke-opacity:1"
       d="m 31.878413,17.258932 c -5.945636,7.97551 -13.031367,17.40733 -20.592149,37.67925 3.283809,-0.39038 4.967037,0.92653 5.330592,3.65109 0.752802,-3.20081 4.973224,-17.59261 8.545527,-23.58534 0.399328,-3.84168 4.659962,-13.46972 6.71603,-17.745 z"
       id="path19206"
       sodipodi:nodetypes="ccccc" />
    <path
       style="fill:none;stroke:#27213c;stroke-width:0.264583px;stroke-linecap:butt;stroke-linejoin:miter;stroke-opacity:1"
       d="m 11.286264,54.938182 c 0.123147,0.47764 0.263768,0.89413 0.419666,1.25714 m 3.979268,2.41924 c 0.308803,-0.002 0.620579,-0.015 0.931658,-0.0253 v 0 0"
       id="path20556"
       sodipodi:nodetypes="cccccc" />
    <path
       style="fill:#ffffff;fill-opacity:1;stroke:#27213c;stroke-width:1.165;stroke-linecap:butt;stroke-linejoin:miter;stroke-miterlimit:4;stroke-dasharray:none;stroke-opacity:1"
       d="m 11.686286,56.149102 -2.0065044,7.62471 c 1.2305134,-0.7004 1.5377824,0.0995 1.6795014,1.16835 l 4.233734,-6.32375 m 0,0 0.413588,-0.61776 c -0.625624,-1.38837 -1.601284,-2.52671 -4.136168,-2.55132 l -0.184151,0.69977"
       id="path20686"
       sodipodi:nodetypes="cccccccc" />
    <path
       style="fill:none;stroke:#27213c;stroke-width:0.264583px;stroke-linecap:butt;stroke-linejoin:miter;stroke-opacity:1"
       d="m 9.6797816,63.773812 c -0.03146,1.89043 0.8408034,1.48679 1.6795014,1.16835 v 0 0"
       id="path20892"
       sodipodi:nodetypes="cccc" />
    <path
       style="fill:#ffffff;fill-opacity:1;stroke:#27213c;stroke-width:0;stroke-linecap:butt;stroke-linejoin:miter;stroke-miterlimit:4;stroke-dasharray:none;stroke-opacity:1"
       d="M 11.748073,53.774622 C 10.385824,39.737112 14.274355,24.003462 27.35106,10.321876 17.593404,24.596622 13.923266,37.520012 13.744274,48.730352 m 0.982605,11.11999 c 2.571134,13.17127 9.65235,23.13042 15.252967,29.04298 -7.244825,-5.16917 -13.751139,-14.93401 -16.74642,-26.65524"
       id="path21421"
       sodipodi:nodetypes="cccccc" />
  </g>
</svg>
