<?xml version="1.0" encoding="UTF-8" standalone="no"?>
<!-- Created with Inkscape (http://www.inkscape.org/) -->

<svg
   width="258.79529pt"
   height="254.96063pt"
   viewBox="0 0 91.297227 89.944431"
   version="1.1"
   id="svg5"
   inkscape:version="1.1.2 (b8e25be833, 2022-02-05)"
   sodipodi:docname="ISI marked icon.svg"
   xmlns:inkscape="http://www.inkscape.org/namespaces/inkscape"
   xmlns:sodipodi="http://sodipodi.sourceforge.net/DTD/sodipodi-0.dtd"
   xmlns="http://www.w3.org/2000/svg"
   xmlns:svg="http://www.w3.org/2000/svg">
  <sodipodi:namedview
     id="namedview7"
     pagecolor="#ffffff"
     bordercolor="#666666"
     borderopacity="1.0"
     inkscape:pageshadow="2"
     inkscape:pageopacity="0.0"
     inkscape:pagecheckerboard="0"
     inkscape:document-units="mm"
     showgrid="false"
     units="pt"
     inkscape:zoom="1.2810466"
     inkscape:rotation="-1"
     inkscape:cx="203.93533"
     inkscape:cy="153.31092"
     inkscape:window-width="1920"
     inkscape:window-height="1009"
     inkscape:window-x="-8"
     inkscape:window-y="-8"
     inkscape:window-maximized="1"
     inkscape:current-layer="text2840" />
  <defs
     id="defs2" />
  <g
     inkscape:label="Layer 1"
     inkscape:groupmode="layer"
     id="layer1">
    <g
       id="g12953"
       transform="translate(-1.5371229,18.993085)"
       style="stroke:#b50000;stroke-opacity:1">
      <g
         aria-label="ISI"
         id="text2840"
         style="font-weight:bold;font-stretch:condensed;font-size:50.8px;line-height:1.25;font-family:'Agency FB';-inkscape-font-specification:'Agency FB Bold Condensed';letter-spacing:0px;fill:#e70000;fill-opacity:1;stroke:#b50000;stroke-width:0.264583;stroke-opacity:1"
         transform="matrix(1.3275057,0,0,1.2182038,42.062459,68.956752)">
        <g
           id="g29666">
          <path
             id="path7344"
             style="font-style:italic;font-weight:bold;font-stretch:condensed;font-size:50.8px;line-height:1.25;font-family:'Agency FB';-inkscape-font-specification:'Agency FB Bold Condensed';letter-spacing:0px;fill:#27213c;fill-opacity:1;stroke:none;stroke-width:0.264583;stroke-opacity:1"
             d="M 23.755987,-16.189298 H 17.95169 v -30.906966 h 5.804297 z m -8.124028,-3.427186 c 0.04099,2.364292 -1.174102,3.555798 -3.522265,3.54707 l -32.255542,-0.119884 c -2.331627,-0.0087 -3.497461,-1.182357 -3.497461,-3.54707 v -9.252149 h 5.804297 v 7.912696 l 27.666675,0.119884 V -31.939893 C 9.863533,-33.253411 8.792369,-33.61464 8.202678,-33.61464 H -6.261168 v -17.822119 c 0,-2.381249 1.165881,-3.590206 3.497461,-3.571874 l 30.495325,0.239769 c 2.348115,0.01846 3.522265,1.174088 3.522265,3.522265 v 8.681641 h -5.804296 v -7.317383 L -0.456871,-50.12211 v 9.430657 2.039463 h 1.866212 11.819583 c 1.46427,0 2.087503,0.836826 2.113494,2.335908 z m -24.96194,-5.444258 h -5.804297 v -29.947891 h 5.804297 z" />
          <path
             style="font-style:italic;font-weight:bold;font-stretch:condensed;font-size:50.8px;line-height:1.25;font-family:'Agency FB';-inkscape-font-specification:'Agency FB Bold Condensed';letter-spacing:0px;fill:none;fill-opacity:1;stroke:#27213c;stroke-width:4.61201;stroke-linecap:butt;stroke-linejoin:miter;stroke-miterlimit:4;stroke-dasharray:none;stroke-opacity:1"
             d="m -27.279452,-54.14239 c 0,-3.676903 2.862991,-6.114104 7.150879,-6.114104 h 45.895822 c 7.495101,0 9.108404,3.383716 9.108404,6.353873 v 37.044274 c 0,6.473836 -4.98952,6.164074 -9.108404,6.164074 h -45.895822 c -4.20687,0 -7.150879,-2.903027 -7.150879,-6.403843 z"
             id="path10594"
             sodipodi:nodetypes="sssssssss" />
          <path
             id="path22499"
             style="font-style:normal;font-stretch:normal;font-size:8.87714px;font-family:sans-serif;-inkscape-font-specification:'sans-serif Bold';fill:#27213c;fill-opacity:1;stroke:none;stroke-width:0.0550486;stroke-opacity:1"
             d="m 21.462684,-67.644742 q 0,0.850667 -0.141178,1.524864 -0.141176,0.669674 -0.440139,1.099532 -0.307268,0.438907 -0.78893,0.665148 -0.481663,0.221717 -1.187548,0.221717 -0.693428,0 -1.183395,-0.226241 -0.489967,-0.226241 -0.793082,-0.669673 -0.307267,-0.443433 -0.444292,-1.099532 -0.137025,-0.660624 -0.137025,-1.51129 0,-0.877815 0.141178,-1.524865 0.141176,-0.647049 0.448444,-1.095006 0.307267,-0.443433 0.797234,-0.665148 0.489968,-0.221717 1.170938,-0.221717 0.710038,0 1.1917,0.230766 0.481662,0.226241 0.788931,0.678723 0.303114,0.443432 0.440139,1.095007 0.137025,0.647049 0.137025,1.497715 z m -1.606926,0 q 0,-1.221701 -0.22007,-1.737531 -0.22007,-0.520354 -0.730799,-0.520354 -0.510728,0 -0.730798,0.520354 -0.220069,0.51583 -0.220069,1.746581 0,1.199077 0.224222,1.728481 0.224222,0.529404 0.726645,0.529404 0.502424,0 0.726646,-0.529404 0.224223,-0.529404 0.224223,-1.737531 z m -4.530121,-0.37556 q 0,0.846141 -0.199308,1.574637 -0.199308,0.728496 -0.606231,1.226227 -0.440139,0.538453 -1.092045,0.809943 -0.651905,0.266964 -1.519728,0.266964 -0.307267,0 -0.664362,-0.04072 -0.357095,-0.04072 -0.469206,-0.07239 v -1.325772 h 0.166091 q 0.124567,0.06334 0.352942,0.135744 0.232527,0.07239 0.631144,0.07239 0.323877,0 0.635296,-0.08597 0.311421,-0.0905 0.535643,-0.280538 0.244983,-0.203618 0.402769,-0.506781 0.157786,-0.307688 0.211765,-0.737545 -0.361246,0.226241 -0.672667,0.348411 -0.307267,0.117646 -0.768168,0.117646 -0.34879,0 -0.668514,-0.0905 -0.315572,-0.09502 -0.577165,-0.289589 -0.344638,-0.266964 -0.552251,-0.701347 -0.203461,-0.438907 -0.203461,-1.104056 0,-1.081432 0.689276,-1.760155 0.693428,-0.683248 1.814539,-0.683248 0.577165,0 1.021457,0.167418 0.448444,0.162894 0.77232,0.502255 0.377857,0.389135 0.568861,0.990936 0.191003,0.601802 0.191003,1.466043 z m -1.590316,-0.25339 q 0,-0.552028 -0.09966,-0.904964 -0.0955,-0.357461 -0.265744,-0.552028 -0.120416,-0.144795 -0.278202,-0.208141 -0.157786,-0.06334 -0.332181,-0.06334 -0.161938,0 -0.311419,0.06334 -0.145329,0.05882 -0.282354,0.208141 -0.128721,0.144794 -0.211766,0.380085 -0.0789,0.23529 -0.0789,0.561077 0,0.316738 0.0872,0.533929 0.0872,0.212667 0.240832,0.339362 0.14533,0.12217 0.340485,0.171943 0.199309,0.04977 0.431836,0.04977 0.186852,0 0.406921,-0.04977 0.220071,-0.05429 0.340487,-0.108596 0,-0.04977 0.0041,-0.140269 0.0083,-0.09502 0.0083,-0.280539 z m -4.3225052,3.999941 H 4.5588204 v -1.113105 q 0.5564028,-0.438907 1.1128066,-0.932113 0.5605555,-0.493205 0.896889,-0.850666 0.5024234,-0.529404 0.7141893,-0.923065 0.2117648,-0.393659 0.2117648,-0.778269 0,-0.461531 -0.2740487,-0.710396 -0.2698979,-0.25339 -0.7806258,-0.25339 -0.3820084,0 -0.8055391,0.171944 -0.4193789,0.171942 -0.7806258,0.438907 H 4.7207586 v -1.497716 q 0.2948103,-0.14027 0.867823,-0.280538 0.5771644,-0.14027 1.1543288,-0.14027 1.1626342,0 1.7730164,0.533929 0.6103832,0.529404 0.6103832,1.50224 0,0.638 -0.2948103,1.212652 -0.2906586,0.574652 -0.8927373,1.185503 -0.3778557,0.380084 -0.7598642,0.701347 -0.3820084,0.316738 -0.5439466,0.443433 h 2.7778642 z m -6.1785678,-2.28051 q 0,0.52488 -0.1826997,0.977362 -0.1785471,0.447958 -0.5231851,0.769219 -0.3820084,0.343887 -0.8802801,0.511305 -0.494119,0.162894 -1.12941546,0.162894 -0.74325529,-0.0045 -1.25813586,-0.13122 -0.51072878,-0.12217 -0.83460518,-0.276014 v -1.488666 h 0.1743953 q 0.3778558,0.24434 0.8138436,0.407234 0.43598784,0.162893 0.86782297,0.162893 0.26159251,0 0.56470822,-0.06334 0.30726741,-0.06787 0.48581451,-0.239815 0.1411766,-0.14027 0.2117649,-0.285064 0.074739,-0.144794 0.074739,-0.447958 0,-0.23529 -0.099654,-0.402709 -0.095498,-0.171942 -0.2491353,-0.276014 -0.224223,-0.149319 -0.53979492,-0.194567 -0.3155719,-0.04977 -0.5730117,-0.04977 -0.373704,0 -0.71834195,0.0724 -0.34048524,0.06787 -0.59792603,0.135744 h -0.1826998 v -3.80085 h 4.397247 v 1.289575 H 0.15741888 v 1.099531 q 0.12871942,-0.0091 0.32387635,-0.01357 0.19930867,-0.0091 0.34878969,-0.0091 0.51072878,0 0.90934618,0.108596 0.4027691,0.104066 0.6934276,0.294114 0.3778558,0.248864 0.5896216,0.660624 0.2117658,0.407233 0.2117658,1.027133 z m -8.6989922,0.162895 q 0,0.99546 -0.7764731,1.619886 -0.7723204,0.6199 -2.1010455,0.6199 -0.7681686,0 -1.3411803,-0.144795 -0.5688599,-0.149318 -1.0671319,-0.37556 v -1.615361 h 0.174395 q 0.49412,0.429859 1.1045017,0.660624 0.614535,0.230766 1.1792432,0.230766 0.1453292,0 0.3820084,-0.02715 0.2366792,-0.02715 0.3861602,-0.0905 0.1826998,-0.08145 0.298963,-0.203618 0.1204159,-0.122169 0.1204159,-0.361985 0,-0.221716 -0.1743953,-0.380085 -0.1702426,-0.162894 -0.5024244,-0.248865 -0.3487897,-0.0905 -0.7391025,-0.167418 -0.3861602,-0.08145 -0.7266464,-0.203617 -0.7806248,-0.276014 -1.1252628,-0.746596 -0.340486,-0.475105 -0.340486,-1.176453 0,-0.941163 0.7723211,-1.533914 0.7764731,-0.597276 1.9930867,-0.597276 0.6103822,0 1.2041565,0.13122 0.597926,0.126695 1.0339129,0.321262 v 1.552013 h -0.1702426 q -0.3737031,-0.325787 -0.9176497,-0.542978 -0.5397949,-0.221717 -1.1045021,-0.221717 -0.1993087,0 -0.3986174,0.03167 -0.1951569,0.02715 -0.3778557,0.108596 -0.1619392,0.06787 -0.2782024,0.208142 -0.1162632,0.135744 -0.1162632,0.312212 0,0.266964 0.1868525,0.411758 0.1868515,0.14027 0.7058848,0.257915 0.3404852,0.07692 0.6519044,0.149319 0.3155729,0.0724 0.6768197,0.199093 0.7100365,0.253389 1.04637,0.692298 0.3404853,0.434382 0.3404853,1.131204 z m -6.2491558,2.117615 h -3.620774 v -1.194552 h 1.013152 v -4.348353 h -1.013152 v -1.194553 h 3.620774 v 1.194553 h -1.013153 v 4.348353 h 1.013153 z" />
          <g
             aria-label="CERTIFIED"
             id="text24345"
             style="font-style:normal;font-stretch:normal;font-size:8.87715px;font-family:sans-serif;-inkscape-font-specification:'sans-serif Bold';fill:#27213c;fill-opacity:1;stroke:none;stroke-width:0.0114533;stroke-opacity:1"
             transform="matrix(0.95794764,0,0,1.0438984,-27.231015,-93.860259)">
            <path
               d="m 9.4148763,89.869354 q -0.7195346,0 -1.3307056,-0.212393 Q 7.4773344,89.444569 7.0395452,89.024118 6.6017561,88.603667 6.3590216,87.975158 6.1206215,87.346649 6.1206215,86.523085 q 0,-0.767215 0.229731,-1.391389 0.2297309,-0.624175 0.66752,-1.070633 0.4204509,-0.42912 1.040291,-0.663186 0.6241746,-0.234065 1.3610473,-0.234065 0.4074473,0 0.7325382,0.04768 0.329426,0.04334 0.606836,0.117033 0.290415,0.08236 0.52448,0.186385 0.2384,0.09969 0.416117,0.186386 v 1.564771 h -0.19072 q -0.121367,-0.104029 -0.307753,-0.247069 -0.182051,-0.14304 -0.416116,-0.281746 -0.2384,-0.138705 -0.515811,-0.234065 -0.2774111,-0.09536 -0.593833,-0.09536 -0.3510982,0 -0.66752,0.112698 -0.3164219,0.108363 -0.5851637,0.364102 -0.2557382,0.247069 -0.4161164,0.654516 -0.1560436,0.407447 -0.1560436,0.988276 0,0.606837 0.1690473,1.014284 0.1733818,0.407447 0.4334545,0.641513 0.2644073,0.2384 0.5894982,0.342429 0.325091,0.09969 0.6415128,0.09969 0.3034182,0 0.5981669,-0.09103 0.299084,-0.09103 0.550488,-0.247069 0.212392,-0.125702 0.394443,-0.268742 0.182051,-0.14304 0.299084,-0.247069 h 0.173382 v 1.543098 q -0.242735,0.108364 -0.463797,0.203724 -0.221061,0.09536 -0.463796,0.164713 -0.316422,0.09103 -0.593833,0.138705 -0.2774106,0.04768 -0.7628797,0.04768 z"
               id="path28571"
               style="fill:#27213c;fill-opacity:1;stroke:none;stroke-opacity:1" />
            <path
               d="m 17.589829,89.743652 h -4.668305 v -6.454138 h 4.668305 v 1.248349 H 14.57732 v 1.113978 h 2.795782 V 86.90019 H 14.57732 v 1.595113 h 3.012509 z"
               id="path28573"
               style="fill:#27213c;fill-opacity:1;stroke:none;stroke-opacity:1" />
            <path
               d="m 22.604898,85.266067 q 0,-0.242735 -0.09969,-0.416117 -0.0997,-0.173382 -0.34243,-0.273076 -0.169047,-0.06935 -0.394443,-0.08236 -0.225397,-0.01734 -0.52448,-0.01734 h -0.602502 v 1.738153 h 0.511476 q 0.398778,0 0.66752,-0.03901 0.268742,-0.03901 0.450793,-0.177716 0.173382,-0.134371 0.251404,-0.294749 0.08236,-0.164713 0.08236,-0.437789 z m 2.596393,4.477585 H 23.168389 L 21.408563,87.37699 h -0.767214 v 2.366662 H 18.985552 V 83.289514 H 21.777 q 0.57216,0 0.983942,0.06502 0.411782,0.06502 0.771549,0.281745 0.364102,0.216728 0.576494,0.563491 0.216728,0.34243 0.216728,0.862575 0,0.7152 -0.33376,1.165993 -0.329426,0.450793 -0.944931,0.749876 z"
               id="path28575"
               style="fill:#27213c;fill-opacity:1;stroke:none;stroke-opacity:1" />
            <path
               d="m 30.979241,84.537863 h -2.015564 v 5.205789 h -1.664465 v -5.205789 h -2.015564 v -1.248349 h 5.695593 z"
               id="path28577"
               style="fill:#27213c;fill-opacity:1;stroke:none;stroke-opacity:1" />
            <path
               d="m 35.46983,89.743652 h -3.779724 v -1.14432 h 1.057629 v -4.165498 h -1.057629 v -1.14432 h 3.779724 v 1.14432 h -1.057629 v 4.165498 h 1.057629 z"
               id="path28579"
               style="fill:#27213c;fill-opacity:1;stroke:none;stroke-opacity:1" />
            <path
               d="m 41.451503,84.537863 h -2.969164 v 1.200669 h 2.752436 v 1.248349 h -2.752436 v 2.756771 h -1.655797 v -6.454138 h 4.624961 z"
               id="path28581"
               style="fill:#27213c;fill-opacity:1;stroke:none;stroke-opacity:1" />
            <path
               d="m 46.089469,89.743652 h -3.779724 v -1.14432 h 1.057629 v -4.165498 h -1.057629 v -1.14432 h 3.779724 v 1.14432 h -1.05763 v 4.165498 h 1.05763 z"
               id="path28583"
               style="fill:#27213c;fill-opacity:1;stroke:none;stroke-opacity:1" />
            <path
               d="m 52.114485,89.743652 h -4.668306 v -6.454138 h 4.668306 v 1.248349 h -3.01251 v 1.113978 h 2.795782 v 1.248349 h -2.795782 v 1.595113 h 3.01251 z"
               id="path28585"
               style="fill:#27213c;fill-opacity:1;stroke:none;stroke-opacity:1" />
            <path
               d="m 59.608915,86.523085 q 0,0.901585 -0.411782,1.616785 -0.411782,0.710866 -1.040291,1.092306 -0.472466,0.28608 -1.035957,0.398778 -0.563491,0.112698 -1.33504,0.112698 h -2.275636 v -6.454138 h 2.340654 q 0.788888,0 1.361048,0.134371 0.57216,0.130036 0.962269,0.372771 0.66752,0.407447 1.04896,1.100974 0.385775,0.689193 0.385775,1.625455 z m -1.720815,-0.013 q 0,-0.637178 -0.234066,-1.087971 -0.229731,-0.455127 -0.732538,-0.710865 -0.255738,-0.125702 -0.52448,-0.169047 -0.264407,-0.04768 -0.801891,-0.04768 h -0.420451 v 4.039796 h 0.420451 q 0.593833,0 0.871244,-0.05201 0.277411,-0.05635 0.541818,-0.19939 0.455127,-0.260072 0.66752,-0.693527 0.212393,-0.437789 0.212393,-1.079302 z"
               id="path28587"
               style="fill:#27213c;fill-opacity:1;stroke:none;stroke-opacity:1" />
          </g>
        </g>
      </g>
    </g>
  </g>
</svg>
