<?xml version="1.0" encoding="UTF-8" standalone="no"?>
<!-- Created with Inkscape (http://www.inkscape.org/) -->

<svg
   width="258.79529pt"
   height="219.96063pt"
   viewBox="0 0 91.297227 77.597201"
   version="1.1"
   id="svg5"
   inkscape:version="1.1.2 (b8e25be833, 2022-02-05)"
   sodipodi:docname="ISI marked icon-wo-code.svg"
   xmlns:inkscape="http://www.inkscape.org/namespaces/inkscape"
   xmlns:sodipodi="http://sodipodi.sourceforge.net/DTD/sodipodi-0.dtd"
   xmlns="http://www.w3.org/2000/svg"
   xmlns:svg="http://www.w3.org/2000/svg">
  <sodipodi:namedview
     id="namedview7"
     pagecolor="#ffffff"
     bordercolor="#666666"
     borderopacity="1.0"
     inkscape:pageshadow="2"
     inkscape:pageopacity="0.0"
     inkscape:pagecheckerboard="0"
     inkscape:document-units="mm"
     showgrid="false"
     units="pt"
     inkscape:zoom="1.2810466"
     inkscape:rotation="-1"
     inkscape:cx="204.60513"
     inkscape:cy="153.47168"
     inkscape:window-width="1920"
     inkscape:window-height="1009"
     inkscape:window-x="-8"
     inkscape:window-y="-8"
     inkscape:window-maximized="1"
     inkscape:current-layer="text2840"
     height="219.96063pt" />
  <defs
     id="defs2" />
  <g
     inkscape:label="Layer 1"
     inkscape:groupmode="layer"
     id="layer1">
    <g
       id="g12953"
       transform="translate(-1.5371229,18.993085)"
       style="stroke:#b50000;stroke-opacity:1">
      <g
         aria-label="ISI"
         id="text2840"
         style="font-weight:bold;font-stretch:condensed;font-size:50.8px;line-height:1.25;font-family:'Agency FB';-inkscape-font-specification:'Agency FB Bold Condensed';letter-spacing:0px;fill:#e70000;fill-opacity:1;stroke:#b50000;stroke-width:0.264583;stroke-opacity:1"
         transform="matrix(1.3275057,0,0,1.2182038,42.062459,68.956752)">
        <g
           id="g1041">
          <path
             id="path7344"
             style="font-style:italic;font-weight:bold;font-stretch:condensed;font-size:50.8px;line-height:1.25;font-family:'Agency FB';-inkscape-font-specification:'Agency FB Bold Condensed';letter-spacing:0px;fill:#27213c;fill-opacity:1;stroke:none;stroke-width:0.264583;stroke-opacity:1"
             d="M 23.755987,-25.311341 H 17.95169 v -30.906966 h 5.804297 z m -8.124028,-3.427186 c 0.04099,2.364292 -1.174102,3.555798 -3.522265,3.54707 l -32.255542,-0.119884 c -2.331627,-0.0087 -3.497461,-1.182357 -3.497461,-3.54707 v -9.252149 h 5.804297 v 7.912696 l 27.666675,0.119884 v -10.983956 c 0.03587,-1.313518 -1.035294,-1.674747 -1.624985,-1.674747 H -6.261168 v -17.822119 c 0,-2.381249 1.165881,-3.590206 3.497461,-3.571874 l 30.495325,0.239769 c 2.348115,0.01846 3.522265,1.174088 3.522265,3.522265 v 8.681641 h -5.804296 v -7.317383 l -25.906458,-0.239769 v 9.430657 2.039463 h 1.866212 11.819583 c 1.46427,0 2.087503,0.836826 2.113494,2.335908 z m -24.96194,-5.444258 h -5.804297 v -29.947891 h 5.804297 z" />
          <path
             style="font-style:italic;font-weight:bold;font-stretch:condensed;font-size:50.8px;line-height:1.25;font-family:'Agency FB';-inkscape-font-specification:'Agency FB Bold Condensed';letter-spacing:0px;fill:none;fill-opacity:1;stroke:#27213c;stroke-width:4.61201;stroke-linecap:butt;stroke-linejoin:miter;stroke-miterlimit:4;stroke-dasharray:none;stroke-opacity:1"
             d="m -27.279452,-63.264433 c 0,-3.676903 2.862991,-6.114104 7.150879,-6.114104 h 45.895822 c 7.495101,0 9.108404,3.383716 9.108404,6.353873 v 37.044274 c 0,6.473836 -4.98952,6.164074 -9.108404,6.164074 h -45.895822 c -4.20687,0 -7.150879,-2.903027 -7.150879,-6.403843 z"
             id="path10594"
             sodipodi:nodetypes="sssssssss" />
          <g
             aria-label="CERTIFIED"
             id="text24345"
             style="font-style:normal;font-stretch:normal;font-size:8.87715px;font-family:sans-serif;-inkscape-font-specification:'sans-serif Bold';fill:#27213c;fill-opacity:1;stroke:none;stroke-width:0.0114533;stroke-opacity:1"
             transform="matrix(0.95794764,0,0,1.0438984,-27.231015,-102.98228)">
            <path
               d="m 9.4148763,89.869354 q -0.7195346,0 -1.3307056,-0.212393 Q 7.4773344,89.444569 7.0395452,89.024118 6.6017561,88.603667 6.3590216,87.975158 6.1206215,87.346649 6.1206215,86.523085 q 0,-0.767215 0.229731,-1.391389 0.2297309,-0.624175 0.66752,-1.070633 0.4204509,-0.42912 1.040291,-0.663186 0.6241746,-0.234065 1.3610473,-0.234065 0.4074473,0 0.7325382,0.04768 0.329426,0.04334 0.606836,0.117033 0.290415,0.08236 0.52448,0.186385 0.2384,0.09969 0.416117,0.186386 v 1.564771 h -0.19072 q -0.121367,-0.104029 -0.307753,-0.247069 -0.182051,-0.14304 -0.416116,-0.281746 -0.2384,-0.138705 -0.515811,-0.234065 -0.2774111,-0.09536 -0.593833,-0.09536 -0.3510982,0 -0.66752,0.112698 -0.3164219,0.108363 -0.5851637,0.364102 -0.2557382,0.247069 -0.4161164,0.654516 -0.1560436,0.407447 -0.1560436,0.988276 0,0.606837 0.1690473,1.014284 0.1733818,0.407447 0.4334545,0.641513 0.2644073,0.2384 0.5894982,0.342429 0.325091,0.09969 0.6415128,0.09969 0.3034182,0 0.5981669,-0.09103 0.299084,-0.09103 0.550488,-0.247069 0.212392,-0.125702 0.394443,-0.268742 0.182051,-0.14304 0.299084,-0.247069 h 0.173382 v 1.543098 q -0.242735,0.108364 -0.463797,0.203724 -0.221061,0.09536 -0.463796,0.164713 -0.316422,0.09103 -0.593833,0.138705 -0.2774106,0.04768 -0.7628797,0.04768 z"
               id="path28571"
               style="fill:#27213c;fill-opacity:1;stroke:none;stroke-opacity:1" />
            <path
               d="m 17.589829,89.743652 h -4.668305 v -6.454138 h 4.668305 v 1.248349 H 14.57732 v 1.113978 h 2.795782 V 86.90019 H 14.57732 v 1.595113 h 3.012509 z"
               id="path28573"
               style="fill:#27213c;fill-opacity:1;stroke:none;stroke-opacity:1" />
            <path
               d="m 22.604898,85.266067 q 0,-0.242735 -0.09969,-0.416117 -0.0997,-0.173382 -0.34243,-0.273076 -0.169047,-0.06935 -0.394443,-0.08236 -0.225397,-0.01734 -0.52448,-0.01734 h -0.602502 v 1.738153 h 0.511476 q 0.398778,0 0.66752,-0.03901 0.268742,-0.03901 0.450793,-0.177716 0.173382,-0.134371 0.251404,-0.294749 0.08236,-0.164713 0.08236,-0.437789 z m 2.596393,4.477585 H 23.168389 L 21.408563,87.37699 h -0.767214 v 2.366662 H 18.985552 V 83.289514 H 21.777 q 0.57216,0 0.983942,0.06502 0.411782,0.06502 0.771549,0.281745 0.364102,0.216728 0.576494,0.563491 0.216728,0.34243 0.216728,0.862575 0,0.7152 -0.33376,1.165993 -0.329426,0.450793 -0.944931,0.749876 z"
               id="path28575"
               style="fill:#27213c;fill-opacity:1;stroke:none;stroke-opacity:1" />
            <path
               d="m 30.979241,84.537863 h -2.015564 v 5.205789 h -1.664465 v -5.205789 h -2.015564 v -1.248349 h 5.695593 z"
               id="path28577"
               style="fill:#27213c;fill-opacity:1;stroke:none;stroke-opacity:1" />
            <path
               d="m 35.46983,89.743652 h -3.779724 v -1.14432 h 1.057629 v -4.165498 h -1.057629 v -1.14432 h 3.779724 v 1.14432 h -1.057629 v 4.165498 h 1.057629 z"
               id="path28579"
               style="fill:#27213c;fill-opacity:1;stroke:none;stroke-opacity:1" />
            <path
               d="m 41.451503,84.537863 h -2.969164 v 1.200669 h 2.752436 v 1.248349 h -2.752436 v 2.756771 h -1.655797 v -6.454138 h 4.624961 z"
               id="path28581"
               style="fill:#27213c;fill-opacity:1;stroke:none;stroke-opacity:1" />
            <path
               d="m 46.089469,89.743652 h -3.779724 v -1.14432 h 1.057629 v -4.165498 h -1.057629 v -1.14432 h 3.779724 v 1.14432 h -1.05763 v 4.165498 h 1.05763 z"
               id="path28583"
               style="fill:#27213c;fill-opacity:1;stroke:none;stroke-opacity:1" />
            <path
               d="m 52.114485,89.743652 h -4.668306 v -6.454138 h 4.668306 v 1.248349 h -3.01251 v 1.113978 h 2.795782 v 1.248349 h -2.795782 v 1.595113 h 3.01251 z"
               id="path28585"
               style="fill:#27213c;fill-opacity:1;stroke:none;stroke-opacity:1" />
            <path
               d="m 59.608915,86.523085 q 0,0.901585 -0.411782,1.616785 -0.411782,0.710866 -1.040291,1.092306 -0.472466,0.28608 -1.035957,0.398778 -0.563491,0.112698 -1.33504,0.112698 h -2.275636 v -6.454138 h 2.340654 q 0.788888,0 1.361048,0.134371 0.57216,0.130036 0.962269,0.372771 0.66752,0.407447 1.04896,1.100974 0.385775,0.689193 0.385775,1.625455 z m -1.720815,-0.013 q 0,-0.637178 -0.234066,-1.087971 -0.229731,-0.455127 -0.732538,-0.710865 -0.255738,-0.125702 -0.52448,-0.169047 -0.264407,-0.04768 -0.801891,-0.04768 h -0.420451 v 4.039796 h 0.420451 q 0.593833,0 0.871244,-0.05201 0.277411,-0.05635 0.541818,-0.19939 0.455127,-0.260072 0.66752,-0.693527 0.212393,-0.437789 0.212393,-1.079302 z"
               id="path28587"
               style="fill:#27213c;fill-opacity:1;stroke:none;stroke-opacity:1" />
          </g>
        </g>
      </g>
    </g>
  </g>
</svg>
