<?xml version="1.0" encoding="UTF-8" standalone="no"?>
<!-- Created with Inkscape (http://www.inkscape.org/) -->

<svg
   width="356.5pt"
   height="335.65pt"
   version="1.1"
   viewBox="0 0 125.77 118.41"
   id="svg22"
   sodipodi:docname="ISO-certified-icon.svg"
   inkscape:version="1.1.2 (b8e25be833, 2022-02-05)"
   xmlns:inkscape="http://www.inkscape.org/namespaces/inkscape"
   xmlns:sodipodi="http://sodipodi.sourceforge.net/DTD/sodipodi-0.dtd"
   xmlns="http://www.w3.org/2000/svg"
   xmlns:svg="http://www.w3.org/2000/svg">
  <defs
     id="defs26" />
  <sodipodi:namedview
     id="namedview24"
     pagecolor="#ffffff"
     bordercolor="#666666"
     borderopacity="1.0"
     inkscape:pageshadow="2"
     inkscape:pageopacity="0.0"
     inkscape:pagecheckerboard="0"
     inkscape:document-units="pt"
     showgrid="false"
     inkscape:snap-smooth-nodes="true"
     showguides="true"
     inkscape:zoom="1.1360266"
     inkscape:cx="245.1527"
     inkscape:cy="266.7191"
     inkscape:window-width="1920"
     inkscape:window-height="1009"
     inkscape:window-x="-8"
     inkscape:window-y="-8"
     inkscape:window-maximized="1"
     inkscape:current-layer="g854"
     inkscape:object-paths="true"
     inkscape:snap-nodes="false" />
  <g
     id="g854"
     transform="translate(0.49382778,-0.02123019)">
    <path
       d="M 61.078,5.7268 57.3679,2.1915 54.386,6.3594 50.2621,3.3169 l -2.436,4.5087 -4.4727,-2.5015 -1.8518,4.7785 -4.751,-1.9212 -1.2381,4.9729 -4.9544,-1.3106 -0.60521,5.0889 -5.0795,-0.67936 0.0374,5.1246 -5.1246,-0.03741 0.67935,5.0795 -5.0889,0.60522 1.3106,4.9543 -4.9729,1.2381 1.9213,4.751 -4.7785,1.8517 2.5016,4.4727 -4.5088,2.436 3.0424,4.1239 -4.1678,2.9819 3.5353,3.71 -3.7613,3.4808 3.9724,3.2378 -3.2953,3.9248 4.3469,2.7143 -2.7775,4.3068 4.6528,2.1481 -2.2158,4.6209 4.8853,1.5481 -1.6191,4.8623 5.0409,0.92351 -0.99702,5.0268 5.1168,0.28443 -0.35909,5.1122 5.1121,-0.35917 0.28448,5.1168 5.0268,-0.99697 0.92353,5.0408 4.8622,-1.6192 1.548,4.8854 4.6209,-2.2158 2.1481,4.6528 4.3068,-2.7774 2.7143,4.3468 3.9248,-3.2953 3.2378,3.9724 3.4808,-3.7613 3.7101,3.5353 2.9819,-4.1679 4.1239,3.0424 2.436,-4.5088 4.4727,2.5016 1.8517,-4.7785 4.751,1.9213 1.2382,-4.9729 4.9543,1.3107 0.60516,-5.0889 5.0795,0.67939 -0.0374,-5.1246 5.1246,0.0374 -0.6794,-5.0795 5.0889,-0.60518 -1.3107,-4.9543 4.9729,-1.2382 -1.9213,-4.751 4.7785,-1.8517 -2.5016,-4.4727 4.5087,-2.436 -3.0424,-4.1239 4.1679,-2.9819 -3.5353,-3.7101 3.7613,-3.4808 -3.9724,-3.2377 3.2954,-3.9247 -4.3469,-2.7143 2.7775,-4.3068 -4.6528,-2.1481 2.2158,-4.621 -4.8854,-1.548 1.6192,-4.8622 -5.0408,-0.92351 0.997,-5.0268 -5.1168,-0.28444 0.3591,-5.1122 -5.1121,0.35911 -0.28447,-5.1169 -5.0268,0.99699 -0.92352,-5.0408 -4.8622,1.6192 -1.548,-4.8853 -4.621,2.2158 -2.1481,-4.6528 -4.3068,2.7775 -2.7143,-4.3469 -3.9247,3.2954 -3.2377,-3.9725 z"
       fill="#27213c"
       stroke="#000000"
       stroke-width="0.26223px"
       id="path2" />
    <ellipse
       id="path1426"
       transform="matrix(-0.87964,0.47565,0.47565,0.87964,0,0)"
       cx="-27.236"
       cy="81.436996"
       rx="45.400002"
       ry="45.292"
       fill="#b54d5d"
       style="paint-order:markers stroke fill" />
    <g
       aria-label="CERTIFIED"
       id="text7"
       style="font-weight:bold;font-size:16.933px;line-height:1.25;letter-spacing:3.9688px;stroke-width:0.26458">
      <path
         d="m 33.760103,83.440454 -1.961025,-2.87589 1.926368,-1.31356 q 0.840224,-0.572937 0.979944,-0.808312 0.15121,-0.233203 -0.06306,-0.547433 -0.242217,-0.355217 -0.560179,-0.278506 -0.317963,0.07671 -1.158187,0.649648 l -5.13698,3.502829 q -0.806069,0.549646 -0.986776,0.81297 -0.180707,0.263324 0.04754,0.598047 0.218927,0.321061 0.530058,0.249008 0.31579,-0.06522 1.224325,-0.684738 l 1.386711,-0.945578 1.961025,2.875889 -0.430358,0.293455 q -1.714604,1.169163 -2.599557,1.412335 -0.880295,0.250004 -1.98823,-0.215406 -1.103276,-0.458579 -1.932403,-1.674513 -0.861733,-1.263752 -0.963012,-2.39557 -0.101279,-1.131818 0.523127,-1.947876 0.631237,-0.820717 2.257037,-1.929325 l 3.231106,-2.203242 q 1.19544,-0.815153 1.845642,-1.138427 0.657032,-0.327933 1.485173,-0.302198 0.8328,0.03257 1.636122,0.535562 0.814811,0.505169 1.452959,1.441028 0.866391,1.270583 0.938173,2.432522 0.07178,1.16194 -0.488972,1.924587 -0.553922,0.757989 -2.10458,1.815359 z"
         style="font-family:Impact;fill:#f5f5dc"
         id="path1087" />
      <path
         d="m 39.805548,81.249631 4.432363,3.747359 -1.729551,2.045706 -1.774208,-1.500011 -1.638802,1.938369 1.660558,1.403925 -1.64414,1.944684 -1.660558,-1.403925 -1.90037,2.247751 1.950997,1.649478 -1.72955,2.045706 -4.609152,-3.896826 z"
         style="font-family:Impact;fill:#f5f5dc"
         id="path1089" />
      <path
         d="m 45.582009,85.990536 2.234174,1.038842 q 2.234173,1.038842 2.941203,1.577314 0.714526,0.541957 0.878169,1.484272 0.174625,0.938305 -0.546987,2.490231 -0.658863,1.416975 -1.237825,1.740451 -0.578963,0.323475 -1.658899,-0.06014 0.829086,0.66817 0.970192,1.207926 0.141106,0.539756 0.06269,0.904495 -0.06743,0.360727 -0.750696,1.830183 l -1.488542,3.20132 -2.931415,-1.36305 1.875493,-4.033507 q 0.453187,-0.974639 0.403812,-1.28026 -0.04188,-0.302135 -0.694135,-0.605421 l -2.544815,5.472975 -3.156332,-1.467627 z m 2.190697,3.544357 -1.254977,2.699002 q 0.532303,0.247509 0.80846,0.202671 0.287141,-0.04885 0.660148,-0.851052 l 0.310258,-0.667253 q 0.268426,-0.577287 0.142169,-0.854829 -0.11876,-0.274057 -0.666058,-0.528539 z"
         style="font-family:Impact;fill:#f5f5dc"
         id="path1091" />
      <path
         d="m 61.20541,90.81173 -0.433357,2.64357 -2.039791,-0.33438 -1.732089,10.56612 -3.435008,-0.5631 1.732089,-10.566116 -2.031632,-0.333043 0.433356,-2.643569 z"
         style="font-family:Impact;fill:#f5f5dc"
         id="path1093" />
      <path
         d="m 66.43187,90.44147 0.863433,13.35812 -3.473608,0.22453 -0.863432,-13.358126 z"
         style="font-family:Impact;fill:#f5f5dc"
         id="path1095" />
      <path
         d="m 68.893192,90.114756 5.663881,-1.63494 0.742946,2.57377 -2.31957,0.669568 0.703964,2.438726 2.065371,-0.596191 0.706257,2.446669 -2.065371,0.596192 1.559269,5.40174 -3.344311,0.96537 z"
         style="font-family:Impact;fill:#f5f5dc"
         id="path1097" />
      <path
         d="m 79.376202,85.933002 6.358387,11.77947 -3.063099,1.653416 -6.358386,-11.77947 z"
         style="font-family:Impact;fill:#f5f5dc"
         id="path1099" />
      <path
         d="m 81.481144,84.631391 4.393431,-3.792928 1.750582,2.027738 -1.758624,1.518251 1.658731,1.921344 1.645972,-1.420997 1.664133,1.927602 -1.645972,1.420997 1.923479,2.228008 1.933861,-1.669537 1.750582,2.027738 -4.568667,3.944213 z"
         style="font-family:Impact;fill:#f5f5dc"
         id="path1101" />
      <path
         d="m 87.057443,79.702837 1.447746,-2.164982 q 1.401784,-2.096253 2.086001,-2.702971 0.688813,-0.613591 1.386059,-0.704332 0.697246,-0.09074 1.304554,0.176123 0.600435,0.262268 2.181216,1.319352 l 3.896967,2.605941 q 1.498304,1.001931 1.910384,1.486369 0.40981,0.472968 0.46408,1.016522 0.0474,0.538957 -0.18047,1.132561 -0.23473,0.589009 -0.92873,1.626825 l -2.440486,3.649542 z m 3.838733,-1.62042 7.319701,4.894757 q 0.418237,-0.625439 0.267327,-0.935228 -0.157783,-0.314384 -1.271202,-1.058939 l -4.323091,-2.890894 q -0.756026,-0.505562 -1.00126,-0.599928 -0.245233,-0.09437 -0.456355,0.01311 -0.217995,0.102884 -0.53512,0.577118 z"
         style="font-family:Impact;fill:#f5f5dc"
         id="path1103" />
    </g>
    <g
       id="g20">
      <circle
         id="path1050"
         transform="rotate(-151.51)"
         cx="-83.089996"
         cy="-21.674"
         r="31.084"
         fill="#f5f5dc"
         style="paint-order:markers stroke fill" />
      <path
         d="m 122.59,72.013 c 0.67573,-8.1157 2.9263,-19.44 -0.92726,-33.057 -0.34845,-1.2313 -2.9688,-2.1204 -4.7584,-2.1747 26.07,7.5299 -127.14,10.287 -105.03,-0.58417 -1.6823,0.23922 -7.4146,2.7051 -8.0716,4.7012 -3.9111,11.884 -3.2307,18.172 -1.5125,30.235 0.39715,2.7881 5.4598,4.0762 5.4598,4.0762 -27.345,-16.219 132.78,-12.603 108.92,3.4229 1.6018,-0.0429 5.7257,-4.2311 5.9245,-6.6188 z"
         fill="#f5f5dc"
         id="path14" />
      <g
         aria-label="ISO 9001"
         id="text18"
         style="font-weight:bold;font-size:22.578px;line-height:1.25;letter-spacing:0px;fill:#27213c;stroke-width:0.26458">
        <path
           d="M 14.283039,63.172779 H 4.6697508 V 60.262334 H 7.3597077 V 49.667872 H 4.6697508 v -2.910445 h 9.6132882 v 2.910445 h -2.689956 v 10.594462 h 2.689956 z"
           id="path1143" />
        <path
           d="m 30.874782,58.013354 q 0,2.425371 -2.061565,3.94674 -2.050541,1.510344 -5.578354,1.510344 -2.039516,0 -3.560885,-0.352781 -1.510345,-0.363806 -2.833275,-0.915026 v -3.935716 h 0.463026 q 1.311905,1.047319 2.932494,1.609564 1.631613,0.562246 3.130933,0.562246 0.385855,0 1.014246,-0.06615 0.628392,-0.06615 1.025271,-0.220488 0.485074,-0.19844 0.793758,-0.496099 0.319708,-0.297659 0.319708,-0.881953 0,-0.540196 -0.463026,-0.926051 -0.452001,-0.396879 -1.333954,-0.606342 -0.926051,-0.220489 -1.962345,-0.407904 -1.025271,-0.198439 -1.929273,-0.496098 -2.07259,-0.67249 -2.987616,-1.819029 -0.904002,-1.157563 -0.904002,-2.866347 0,-2.293078 2.050541,-3.737276 2.061565,-1.455223 5.291719,-1.455223 1.620588,0 3.19708,0.319708 1.587515,0.308684 2.745079,0.782733 v 3.781374 h -0.452001 q -0.992198,-0.793758 -2.436396,-1.322929 -1.433174,-0.540197 -2.932494,-0.540197 -0.529172,0 -1.058343,0.07717 -0.518148,0.06615 -1.003222,0.264586 -0.429952,0.165366 -0.738636,0.507123 -0.308683,0.330733 -0.308683,0.760685 0,0.65044 0.496098,1.003221 0.496099,0.341757 1.874151,0.628392 0.904001,0.187415 1.730832,0.363806 0.837856,0.17639 1.79698,0.485074 1.885175,0.617367 2.778152,1.686735 0.904002,1.058344 0.904002,2.756104 z"
           id="path1145" />
        <path
           d="m 49.737554,54.970615 q 0,3.924692 -2.248981,6.239818 -2.24898,2.304103 -6.217769,2.304103 -3.957765,0 -6.206745,-2.304103 -2.24898,-2.315126 -2.24898,-6.239818 0,-3.957764 2.24898,-6.250842 2.24898,-2.304103 6.206745,-2.304103 3.94674,0 6.206745,2.304103 2.260005,2.293078 2.260005,6.250842 z m -5.611427,4.156204 q 0.617367,-0.74966 0.915026,-1.763906 0.297659,-1.02527 0.297659,-2.403322 0,-1.477271 -0.341756,-2.513566 -0.341757,-1.036295 -0.892978,-1.675711 -0.562245,-0.661465 -1.300881,-0.959124 -0.727611,-0.297659 -1.521369,-0.297659 -0.804782,0 -1.521369,0.286634 -0.705562,0.286635 -1.300881,0.9481 -0.55122,0.617367 -0.904002,1.708784 -0.341756,1.080393 -0.341756,2.513566 0,1.466247 0.330732,2.502542 0.341757,1.025271 0.892978,1.675711 0.55122,0.650441 1.289856,0.959124 0.738636,0.308684 1.554442,0.308684 0.815807,0 1.554443,-0.308684 0.738635,-0.319708 1.289856,-0.981173 z"
           id="path1147" />
        <path
           d="m 73.164432,54.044565 q 0,2.061565 -0.529172,3.836496 -0.529172,1.77493 -1.609564,2.987616 -1.168588,1.311905 -2.899421,1.97337 -1.730833,0.65044 -4.034936,0.65044 -0.815806,0 -1.763906,-0.09922 -0.948099,-0.09922 -1.245758,-0.17639 v -3.230153 h 0.440976 q 0.330732,0.154341 0.937075,0.330732 0.617367,0.176391 1.675711,0.176391 0.859904,0 1.686735,-0.209464 0.826831,-0.220489 1.42215,-0.683514 0.65044,-0.496099 1.069368,-1.234734 0.418928,-0.74966 0.562245,-1.79698 -0.959124,0.551221 -1.785955,0.84888 -0.815807,0.286635 -2.039517,0.286635 -0.92605,0 -1.77493,-0.220488 -0.837856,-0.231513 -1.532394,-0.705563 -0.915026,-0.65044 -1.466247,-1.708784 -0.540196,-1.069368 -0.540196,-2.689957 0,-2.634835 1.830053,-4.288497 1.841077,-1.664686 4.817668,-1.664686 1.532394,0 2.712006,0.407903 1.190637,0.396879 2.050541,1.22371 1.003222,0.9481 1.510345,2.414347 0.507123,1.466247 0.507123,3.57191 z m -4.222351,-0.617368 q 0,-1.344978 -0.264585,-2.204882 -0.253562,-0.870929 -0.705563,-1.344979 -0.319708,-0.352781 -0.738636,-0.507123 -0.418927,-0.154342 -0.881953,-0.154342 -0.429952,0 -0.826831,0.154342 -0.385854,0.143318 -0.74966,0.507123 -0.341757,0.352781 -0.562245,0.926051 -0.209464,0.573269 -0.209464,1.367027 0,0.771709 0.231513,1.300881 0.231512,0.518148 0.639416,0.826831 0.385854,0.297659 0.904002,0.418928 0.529172,0.121268 1.146539,0.121268 0.496098,0 1.080392,-0.121268 0.584294,-0.132293 0.904002,-0.264586 0,-0.121269 0.01103,-0.341757 0.02205,-0.231513 0.02205,-0.683514 z"
           id="path1149" />
        <path
           d="m 89.458517,54.959591 q 0,2.07259 -0.37483,3.715227 -0.37483,1.631614 -1.168588,2.678933 -0.815807,1.069368 -2.094639,1.620589 -1.278832,0.540196 -3.152982,0.540196 -1.841077,0 -3.141958,-0.551221 -1.300881,-0.55122 -2.105663,-1.631613 -0.815806,-1.080393 -1.179612,-2.678933 -0.363806,-1.609564 -0.363806,-3.682154 0,-2.138736 0.37483,-3.715227 0.37483,-1.576491 1.190637,-2.667908 0.815807,-1.080393 2.116688,-1.620589 1.30088,-0.540196 3.108884,-0.540196 1.885175,0 3.164007,0.562245 1.278832,0.551221 2.094638,1.653662 0.804783,1.080392 1.168588,2.667908 0.363806,1.576491 0.363806,3.649081 z m -4.266448,0 q 0,-2.976592 -0.584294,-4.233375 -0.584294,-1.267807 -1.940297,-1.267807 -1.356003,0 -1.940297,1.267807 -0.584294,1.256783 -0.584294,4.255424 0,2.921469 0.595319,4.211326 0.595318,1.289856 1.929272,1.289856 1.333954,0 1.929273,-1.289856 0.595318,-1.289857 0.595318,-4.233375 z"
           id="path1151" />
        <path
           d="m 105.51006,54.959591 q 0,2.07259 -0.37483,3.715227 -0.37483,1.631614 -1.16859,2.678933 -0.8158,1.069368 -2.09464,1.620589 -1.27883,0.540196 -3.152978,0.540196 -1.841077,0 -3.141958,-0.551221 -1.30088,-0.55122 -2.105663,-1.631613 -0.815806,-1.080393 -1.179612,-2.678933 -0.363805,-1.609564 -0.363805,-3.682154 0,-2.138736 0.37483,-3.715227 0.37483,-1.576491 1.190636,-2.667908 0.815807,-1.080393 2.116688,-1.620589 1.300881,-0.540196 3.108884,-0.540196 1.885178,0 3.164008,0.562245 1.27883,0.551221 2.09464,1.653662 0.80478,1.080392 1.16859,2.667908 0.3638,1.576491 0.3638,3.649081 z m -4.26645,0 q 0,-2.976592 -0.58429,-4.233375 -0.58429,-1.267807 -1.940298,-1.267807 -1.356003,0 -1.940296,1.267807 -0.584294,1.256783 -0.584294,4.255424 0,2.921469 0.595318,4.211326 0.595318,1.289856 1.929272,1.289856 1.333958,0 1.929268,-1.289856 0.59532,-1.289857 0.59532,-4.233375 z"
           id="path1153" />
        <path
           d="m 120.63555,63.172779 h -10.95826 v -2.866347 h 3.46166 v -8.676214 h -3.46166 v -2.678932 q 0.79376,0 1.52137,-0.0882 0.72761,-0.09922 1.21268,-0.330732 0.57327,-0.275611 0.85991,-0.716587 0.28663,-0.440977 0.33073,-1.102441 h 3.64908 v 13.593102 h 3.38449 z"
           id="path1155" />
      </g>
    </g>
    <g
       aria-label="CERTIFIED"
       id="text11"
       style="font-weight:bold;font-size:16.933px;line-height:1.25;letter-spacing:0px;stroke-width:0.26458">
      <path
         d="M 34.374052,32.068049 32.275345,34.84506 30.41521,33.439275 q -0.811336,-0.613161 -1.079013,-0.670366 -0.269289,-0.06879 -0.498601,0.234641 -0.259223,0.343003 -0.08495,0.619797 0.174269,0.276795 0.985605,0.889956 l 4.960361,3.748759 q 0.778354,0.588237 1.085609,0.675351 0.307255,0.08711 0.551522,-0.2361 0.234298,-0.310022 0.06663,-0.581831 -0.162689,-0.278406 -1.039987,-0.941418 l -1.339033,-1.011965 2.098707,-2.777011 0.415562,0.314058 q 1.655652,1.251249 2.168794,2.012143 0.518127,0.754298 0.431052,1.952857 -0.08209,1.191962 -0.969429,2.36609 -0.922234,1.220302 -1.962388,1.67785 -1.040153,0.457549 -2.012925,0.126565 -0.979367,-0.335968 -2.549269,-1.522411 l -3.120014,-2.357929 q -1.154339,-0.872385 -1.66839,-1.385239 -0.520648,-0.517839 -0.760824,-1.310806 -0.235191,-0.799562 -0.01519,-1.721478 0.218393,-0.933498 0.901346,-1.83718 0.927219,-1.226898 2.005339,-1.666118 1.078119,-0.439219 1.979944,-0.15149 0.895228,0.282744 2.392571,1.414351 z"
         style="font-family:Impact;fill:#f5f5dc"
         id="path951" />
      <path
         d="m 33.232879,25.237397 4.591171,-3.551012 1.638928,2.119002 -1.837776,1.421416 1.552935,2.00782 1.720055,-1.330365 1.557993,2.01436 -1.720054,1.330365 1.800798,2.328286 2.020901,-1.563052 1.638928,2.119002 -4.774294,3.692648 z"
         style="font-family:Impact;fill:#f5f5dc"
         id="path953" />
      <path
         d="m 41.858164,19.201758 2.270905,-0.955883 q 2.270905,-0.955883 3.144833,-1.117417 0.881548,-0.164741 1.689228,0.3475 0.812092,0.501412 1.476078,2.078853 0.606249,1.440273 0.456584,2.086364 -0.149665,0.646092 -1.159593,1.187816 1.051999,-0.164723 1.546478,0.09361 0.494479,0.258336 0.711821,0.561561 0.221755,0.292397 0.850457,1.786012 l 1.369672,3.253948 -2.979611,1.254196 -1.725722,-4.099822 Q 49.092298,24.687835 48.83283,24.518961 48.580983,24.346879 47.918,24.625946 l 2.341594,5.562956 -3.208226,1.350426 z m 4.096747,0.760449 1.154758,2.743376 q 0.541055,-0.227744 0.693483,-0.462348 0.156841,-0.245432 -0.186379,-1.060824 l -0.285482,-0.678223 q -0.24699,-0.586778 -0.537347,-0.679855 -0.282737,-0.09628 -0.839033,0.137874 z"
         style="font-family:Impact;fill:#f5f5dc"
         id="path955" />
      <path
         d="m 60.831482,14.085737 0.340517,2.657123 -2.050249,0.262745 1.361021,10.620292 -3.45262,0.442463 -1.361021,-10.620292 -2.042048,0.261695 -0.340518,-2.657124 z"
         style="font-family:Impact;fill:#f5f5dc"
         id="path957" />
      <path
         d="M 67.846562,14.471204 66.82037,27.817812 63.349758,27.550964 64.37595,14.204356 Z"
         style="font-family:Impact;fill:#f5f5dc"
         id="path959" />
      <path
         d="m 71.727133,15.051028 5.689574,1.543152 -0.701235,2.585444 -2.330093,-0.631977 -0.664442,2.449789 2.07474,0.562719 -0.666607,2.457769 -2.07474,-0.56272 -1.471729,5.426242 -3.359482,-0.911173 z"
         style="font-family:Impact;fill:#f5f5dc"
         id="path961" />
      <path
         d="M 83.638888,19.41924 77.797995,31.463698 74.66599,29.94485 80.506882,17.900392 Z"
         style="font-family:Impact;fill:#f5f5dc"
         id="path963" />
      <path
         d="m 87.067356,21.381697 4.650211,3.473338 -1.603079,2.146252 -1.861409,-1.390325 -1.518967,2.033639 1.742173,1.301265 -1.523915,2.040263 -1.742173,-1.301265 -1.761408,2.358227 2.046888,1.528863 -1.603079,2.146251 -4.835689,-3.611876 z"
         style="font-family:Impact;fill:#f5f5dc"
         id="path965" />
      <path
         d="m 95.248598,28.119864 1.605395,2.050809 q 1.554431,1.985705 1.917461,2.825031 0.368127,0.845836 0.236858,1.5366 -0.131268,0.690764 -0.574247,1.184534 -0.436469,0.488673 -1.933885,1.660867 l -3.691457,2.889711 q -1.41929,1.111036 -2.008094,1.351455 -0.577197,0.241834 -1.110559,0.123851 -0.526852,-0.123079 -1.019768,-0.524727 -0.486405,-0.406744 -1.255975,-1.38983 l -2.706238,-3.457079 z m 0.342213,4.152651 -6.933688,5.427765 q 0.46378,0.592456 0.805185,0.545703 0.347915,-0.05185 1.402617,-0.877481 l 4.095108,-3.205694 q 0.716156,-0.560614 0.882306,-0.764179 0.16615,-0.203565 0.129885,-0.437679 -0.02975,-0.23921 -0.381413,-0.688435 z"
         style="font-family:Impact;fill:#f5f5dc"
         id="path967" />
    </g>
  </g>
</svg>
