<?xml version="1.0" encoding="UTF-8" standalone="no"?>
<!-- Created with Inkscape (http://www.inkscape.org/) -->

<svg
   width="160mm"
   height="84mm"
   viewBox="0 0 159.99998 84"
   version="1.1"
   id="svg5"
   inkscape:version="1.1.2 (b8e25be833, 2022-02-05)"
   sodipodi:docname="LOGGO.svg"
   xmlns:inkscape="http://www.inkscape.org/namespaces/inkscape"
   xmlns:sodipodi="http://sodipodi.sourceforge.net/DTD/sodipodi-0.dtd"
   xmlns="http://www.w3.org/2000/svg"
   xmlns:svg="http://www.w3.org/2000/svg">
  <sodipodi:namedview
     id="namedview7"
     pagecolor="#ffffff"
     bordercolor="#666666"
     borderopacity="1.0"
     inkscape:pageshadow="2"
     inkscape:pageopacity="0.0"
     inkscape:pagecheckerboard="0"
     inkscape:document-units="mm"
     showgrid="false"
     height="100mm"
     units="mm"
     inkscape:zoom="1.4142136"
     inkscape:cx="356.73537"
     inkscape:cy="103.9447"
     inkscape:window-width="1920"
     inkscape:window-height="1009"
     inkscape:window-x="-8"
     inkscape:window-y="-8"
     inkscape:window-maximized="1"
     inkscape:current-layer="layer1"
     showguides="false"
     width="296mm" />
  <defs
     id="defs2">
    <linearGradient
       id="linearGradient30160"
       inkscape:swatch="solid">
      <stop
         style="stop-color:#000000;stop-opacity:1;"
         offset="0"
         id="stop30158" />
    </linearGradient>
  </defs>
  <g
     inkscape:groupmode="layer"
     id="layer2"
     inkscape:label="Layer 2">
    <path
       style="fill:none;fill-opacity:1;stroke:#f5f5dc;stroke-width:3pxpx;stroke-linecap:butt;stroke-linejoin:miter;stroke-opacity:1"
       d="M 1.4002471,19.998911 C 8.5551149,63.639977 18.681552,69.892601 28.915912,81.712375 47.064704,68.75224 55.677842,51.786656 59.183004,19.998911 c -17.336133,6.939912 -34.341821,13.409131 -57.7827569,0 z"
       id="path31049"
       sodipodi:nodetypes="cccc" />
  </g>
  <g
     inkscape:label="Layer 1"
     inkscape:groupmode="layer"
     id="layer1">
    <g
       id="g31593"
       transform="translate(-81.227126,-63.764617)">
      <path
         style="fill:#f5f5dc;fill-opacity:1;stroke:#000000;stroke-width:0;stroke-linecap:butt;stroke-linejoin:miter;stroke-miterlimit:4;stroke-dasharray:none;stroke-opacity:1"
         d="m 98.664489,94.011777 -4.770763,26.744143 h 7.109374 l 2.52569,-15.08357 4.2095,15.08357 h 8.51253 L 106.7093,94.011777 Z"
         id="path9038"
         sodipodi:nodetypes="cccccccc" />
      <path
         style="fill:none;fill-opacity:1;stroke:#f5f5dc;stroke-width:2px;stroke-linecap:butt;stroke-linejoin:miter;stroke-opacity:1"
         d="m 116.74739,118.86406 -4.29948,-13.29531 4.63021,-11.556973 h 7.60677 l 4.43178,26.744143 h -7.47448 l -2.31511,-15.08357 z"
         id="path9206"
         sodipodi:nodetypes="cccccccc" />
    </g>
    <g
       id="g31914"
       transform="translate(-68.791703,-64.029201)">
      <path
         style="fill:#f5f5dc;fill-opacity:1;stroke:#000000;stroke-width:0px;stroke-linecap:butt;stroke-linejoin:miter;stroke-opacity:1"
         d="m 132.82083,94.011777 h 22.88646 l 0.13229,5.41365 h -8.59896 v 21.330493 h -5.88697 V 99.425427 h -8.40053 z"
         id="path9378"
         sodipodi:nodetypes="ccccccccc" />
      <path
         style="fill:#f5f5dc;fill-opacity:1;stroke:#000000;stroke-width:0px;stroke-linecap:butt;stroke-linejoin:miter;stroke-opacity:1"
         d="m 158.68384,102.07126 v 13.41936 c -0.16414,2.06699 0.46984,3.88315 2.48477,5.2653 h 15.44076 l 2.51354,-4.3889 h -13.61137 c -1.02512,-0.43849 -1.46806,-1.65323 -1.37069,-3.58838 v -6.77994 h 10.21951 v 2.94348 h -7.0776 v 3.175 h 10.38489 c 0.88292,-0.0181 1.70674,-0.14598 1.73213,-1.75666 v -6.90844 c 0.0166,-0.91602 -0.57155,-1.40011 -1.86442,-1.38082 z"
         id="path9607"
         sodipodi:nodetypes="ccccccccccccccccc" />
      <path
         style="fill:#f5f5dc;fill-opacity:1;stroke:#000000;stroke-width:0px;stroke-linecap:butt;stroke-linejoin:miter;stroke-opacity:1"
         d="m 182.62864,104.57656 c 0.26458,12.10469 0,11.90625 0,11.90625 -0.0133,2.53279 0.61621,4.2888 2.71198,4.27311 h 16.47031 v -4.3889 h -11.77396 c -1.26408,-0.41923 -1.40434,-1.64119 -1.4552,-2.927 v -6.08541 c 0.1443,-0.6215 0.007,-1.40388 1.32291,-1.35591 h 10.18646 l 1.85208,-3.92744 h -17.26406 c -1.22925,0.33483 -1.87939,1.20053 -2.05052,2.5053 z"
         id="path11006"
         sodipodi:nodetypes="ccccccccccccc" />
      <path
         style="fill:#f5f5dc;fill-opacity:1;stroke:#000000;stroke-width:0px;stroke-linecap:butt;stroke-linejoin:miter;stroke-opacity:1"
         d="m 204.95283,94.011777 c -0.0662,22.754173 0,26.744143 0,26.744143 h 5.82083 V 94.011777 Z"
         id="path11008"
         sodipodi:nodetypes="ccccc" />
      <path
         style="fill:#f5f5dc;fill-opacity:1;stroke:#000000;stroke-width:0px;stroke-linecap:butt;stroke-linejoin:miter;stroke-opacity:1"
         d="m 211.13749,105.9987 2.64583,-3.92744 h 10.45105 c 1.95221,0.27417 2.90933,1.1288 2.74504,2.63759 v 16.04707 h -5.95309 v -12.40905 c -0.25026,-0.87152 -0.11656,-1.81285 -2.21586,-2.34817 z"
         id="path11010"
         sodipodi:nodetypes="ccccccccc" />
      <path
         id="path22788"
         style="fill:#f5f5dc;fill-opacity:1;stroke:#000000;stroke-width:0.1px;stroke-linecap:butt;stroke-linejoin:miter;stroke-opacity:1"
         d="m 179.86989,66.69036 c 0.69761,0.670115 1.10206,1.380801 1.42214,2.282032 16.96434,1.400651 23.44454,20.873894 9.29349,30.923181 12.99507,-6.517511 15.42384,-32.684901 -10.71563,-33.205213 z m -6.204,7.558337 c 0.48265,0.07986 -0.51964,3.913545 -2.14974,6.283853 -1.15105,1.673735 1.69321,2.508595 2.3151,0.429949 1.04101,-3.47954 -0.0998,-6.717078 -0.16536,-6.713802 z m 12.7432,21.292166 c 8.04742,-2.871765 6.8556,-6.010942 6.78196,-8.395604 -0.88974,2.40766 -2.26902,5.027594 -3.90547,5.332028 0.54112,-2.426452 -0.37403,-4.477091 -1.75396,-6.407788 1.26667,4.677909 0.11442,7.113883 -1.12253,9.471364 z M 177.8264,67.477562 c 2.17037,8.5614 -1.67902,14.713269 -1.63702,14.639689 3.00127,-3.570244 5.94558,-7.17087 1.63702,-14.639689 z m -3.43775,30.051118 c -0.90259,-1.126645 -2.23343,-2.054467 -1.84751,-4.326424 1.49569,-4.479294 9.18692,-4.876679 9.99628,-16.082387 3.2642,15.69047 -9.53956,11.360579 -8.14877,20.408811 z m -2.21105,-1.881807 c -1.97646,-1.934251 -4.41251,-3.179084 -2.97656,-10.120312 1.16334,1.905901 2.96782,0.819867 4.63021,0.396875 -1.75786,2.985129 -5.24608,1.780532 -1.65365,9.723437 z m 5.2129,-26.315857 c 1.34395,10.395744 -5.37252,20.920064 -8.05717,14.409608 -3.3489,8.389858 0.53393,11.702122 5.35781,14.353645 -0.54517,-6.745988 9.24305,-7.975237 8.7974,-13.626041 v 0 c 3.54898,3.257696 3.69736,7.28327 1.78594,11.773959 7.76183,-1.66284 10.47233,-5.502975 8.00364,-11.575521 v 0 c -0.90127,1.552298 -1.78102,3.000582 -2.3151,2.778125 -0.23387,-5.025829 -0.59566,-9.961643 -5.4901,-11.707812 0.97239,5.672127 -0.24353,5.873481 -1.32292,6.416145 -0.71047,-8.97338 -3.75588,-13.891329 -7.80521,-17.065625 0.27764,0.734371 0.5032,1.482091 0.6814,2.236435 -11.98419,5.296425 -12.91142,11.690703 -12.65379,18.202628 0.94412,-5.873283 1.36151,-12.023974 13.0181,-16.195546 z" />
    </g>
  </g>
</svg>
