<?xml version="1.0" encoding="UTF-8" standalone="no"?>
<!-- Created with Inkscape (http://www.inkscape.org/) -->

<svg
   width="429.5433"
   height="429.88196"
   viewBox="0 0 113.65008 113.73973"
   version="1.1"
   id="svg5"
   inkscape:version="1.1.2 (b8e25be833, 2022-02-05)"
   sodipodi:docname="SINCE-ICON.svg"
   xmlns:inkscape="http://www.inkscape.org/namespaces/inkscape"
   xmlns:sodipodi="http://sodipodi.sourceforge.net/DTD/sodipodi-0.dtd"
   xmlns="http://www.w3.org/2000/svg"
   xmlns:svg="http://www.w3.org/2000/svg">
  <sodipodi:namedview
     id="namedview7"
     pagecolor="#ffffff"
     bordercolor="#666666"
     borderopacity="1.0"
     inkscape:pageshadow="2"
     inkscape:pageopacity="0.0"
     inkscape:pagecheckerboard="0"
     inkscape:document-units="mm"
     showgrid="false"
     height="296mm"
     units="px"
     inkscape:zoom="0.70710678"
     inkscape:cx="484.36815"
     inkscape:cy="295.57064"
     inkscape:window-width="1920"
     inkscape:window-height="1009"
     inkscape:window-x="-8"
     inkscape:window-y="-8"
     inkscape:window-maximized="1"
     inkscape:current-layer="g845" />
  <defs
     id="defs2" />
  <g
     inkscape:label="Layer 1"
     inkscape:groupmode="layer"
     id="layer1">
    <g
       id="g845"
       transform="translate(0.0051634,0.08710553)">
      <g
         id="g1038">
        <circle
           style="opacity:1;mix-blend-mode:normal;fill:#a5233d;fill-opacity:1;stroke:none;stroke-width:2.646;stroke-miterlimit:4;stroke-dasharray:none;stroke-opacity:1;paint-order:markers stroke fill"
           id="path858"
           cx="-33.354553"
           cy="-73.076958"
           r="55.76495"
           transform="matrix(0.34935493,-0.93699047,-0.93699047,-0.34935493,0,0)"
           mask="none" />
        <g
           aria-label="SINCE 2005"
           transform="rotate(-14.880052,-294.59017,190.38385)"
           id="text1548"
           style="font-style:italic;font-weight:bold;font-size:22.5778px;line-height:1.25;-inkscape-font-specification:'sans-serif Bold Italic';letter-spacing:0px;fill:#f5f5dc;fill-opacity:1;stroke:none;stroke-width:0.264583">
          <path
             id="path65182"
             style="font-style:normal;font-family:Impact;-inkscape-font-specification:'Impact Bold';fill:#f5f5dc;fill-opacity:1;stroke:none"
             d="m 130.19153,141.9047 v 2.8553 h -5.52318 v 3.03168 q 1.03628,-1.2237 2.66788,-1.2237 1.84106,0 2.77813,1.03629 0.94809,1.02526 0.94809,3.95773 v 2.54662 q 0,1.89618 -0.18741,2.78915 -0.17639,0.88194 -0.7717,1.64262 -0.59532,0.74966 -1.66467,1.15756 -1.05834,0.39687 -2.59072,0.39687 -1.71979,0 -3.03169,-0.59531 -1.31189,-0.60634 -1.86311,-1.79697 -0.55121,-1.19062 -0.55121,-3.68212 v -0.97014 h 4.45382 v 1.11346 q 0,1.73082 0.12127,2.45842 0.12127,0.72761 0.83785,0.72761 0.33073,0 0.52917,-0.20947 0.20946,-0.20946 0.22048,-0.45199 0.022,-0.24254 0.0441,-2.10565 v -3.5388 q 0,-1.00322 -0.20946,-1.36702 -0.20947,-0.3638 -0.69454,-0.3638 -0.30868,0 -0.51814,0.18741 -0.20946,0.18742 -0.27561,0.4079 -0.0551,0.20946 -0.0551,0.99219 h -4.40972 l 0.18741,-8.99584 z m -11.32197,6.04132 v 5.95313 q 0,2.02848 -0.22049,2.95452 -0.22048,0.92604 -0.91501,1.73082 -0.69454,0.80477 -1.6757,1.15755 -0.98116,0.35278 -2.19384,0.35278 -1.59853,0 -2.65686,-0.3638 -1.05833,-0.37483 -1.68672,-1.15755 -0.62839,-0.78273 -0.89297,-1.64263 -0.26458,-0.87092 -0.26458,-2.75608 v -6.22874 q 0,-2.45842 0.41892,-3.68212 0.42995,-1.2237 1.68672,-1.96233 1.2678,-0.73863 3.06476,-0.73863 1.46623,0 2.62379,0.51815 1.15755,0.50712 1.73082,1.24575 0.57326,0.73862 0.7717,1.66467 0.20946,0.92604 0.20946,2.95451 z m -4.45382,-1.4993 q 0,-1.42214 -0.14332,-1.77492 -0.13229,-0.3638 -0.63941,-0.3638 -0.49609,0 -0.66146,0.38585 -0.15434,0.37483 -0.15434,1.75287 v 8.70921 q 0,1.55443 0.14332,1.87413 0.15434,0.31971 0.65043,0.31971 0.4961,0 0.65044,-0.37483 0.15434,-0.37483 0.15434,-1.68672 z m -7.65088,1.4993 v 5.95313 q 0,2.02848 -0.22048,2.95452 -0.22049,0.92604 -0.91502,1.73082 -0.69453,0.80477 -1.6757,1.15755 -0.98116,0.35278 -2.19384,0.35278 -1.59852,0 -2.656858,-0.3638 -1.058335,-0.37483 -1.686721,-1.15755 -0.628386,-0.78273 -0.892969,-1.64263 -0.264584,-0.87092 -0.264584,-2.75608 v -6.22874 q 0,-2.45842 0.418924,-3.68212 0.429948,-1.2237 1.686721,-1.96233 1.267796,-0.73863 3.064757,-0.73863 1.46624,0 2.62379,0.51815 1.15755,0.50712 1.73082,1.24575 0.57326,0.73862 0.7717,1.66467 0.20946,0.92604 0.20946,2.95451 z m -4.45382,-1.4993 q 0,-1.42214 -0.14332,-1.77492 -0.13229,-0.3638 -0.63941,-0.3638 -0.49609,0 -0.66146,0.38585 -0.15434,0.37483 -0.15434,1.75287 v 8.70921 q 0,1.55443 0.14332,1.87413 0.15434,0.31971 0.65043,0.31971 0.4961,0 0.65044,-0.37483 0.15434,-0.37483 0.15434,-1.68672 z m -7.783172,10.26364 v 3.04271 H 84.72725 v -2.54662 q 4.354605,-7.12171 5.170405,-8.80843 0.826823,-1.69774 0.826823,-2.64584 0,-0.7276 -0.253559,-1.08038 -0.242535,-0.3638 -0.749653,-0.3638 -0.507119,0 -0.760678,0.39687 -0.242535,0.39688 -0.242535,1.57648 v 1.69775 H 84.72725 v -0.65044 q 0,-1.49931 0.154341,-2.3592 0.15434,-0.87092 0.760677,-1.70877 0.606338,-0.83785 1.576478,-1.2678 0.97014,-0.42995 2.326131,-0.42995 2.65686,0 4.012851,1.32292 1.367015,1.3119 1.367015,3.32935 0,1.53238 -0.771702,3.24115 -0.760678,1.70876 -4.508946,7.254 z M 71.696507,141.9047 h 7.73907 v 3.57188 h -3.097833 v 3.38446 h 2.899395 v 3.39549 h -2.899395 v 3.92466 h 3.406514 v 3.57188 h -8.047751 z m -1.664671,7.78317 h -4.641237 v -3.10886 q 0,-1.35599 -0.15434,-1.68672 -0.143317,-0.34176 -0.650435,-0.34176 -0.573265,0 -0.727605,0.4079 -0.15434,0.4079 -0.15434,1.76389 v 8.29029 q 0,1.30087 0.15434,1.69775 0.15434,0.39687 0.694532,0.39687 0.518143,0 0.672483,-0.39687 0.165365,-0.39688 0.165365,-1.86311 v -2.23794 h 4.641237 v 0.69453 q 0,2.76711 -0.396875,3.92466 -0.385851,1.15755 -1.730818,2.02847 -1.333942,0.87092 -3.29627,0.87092 -2.039499,0 -3.362417,-0.73863 -1.322918,-0.73862 -1.752866,-2.03949 -0.429949,-1.3119 -0.429949,-3.93569 v -5.2145 q 0,-1.92925 0.132292,-2.88837 0.132292,-0.97014 0.782726,-1.86311 0.661459,-0.89297 1.819013,-1.40009 1.168577,-0.51814 2.678909,-0.51814 2.050523,0 3.384465,0.79375 1.333942,0.79375 1.752866,1.98438 0.418924,1.1796 0.418924,3.68212 z M 57.331823,141.9047 v 17.84837 H 53.26385 l -2.414325,-8.1139 v 8.1139 H 46.968966 V 141.9047 h 3.880559 l 2.601739,8.03673 v -8.03673 z m -12.225967,0 v 17.84837 H 40.464619 V 141.9047 Z m -6.482298,5.40191 H 34.31305 v -1.32291 q 0,-0.92605 -0.165365,-1.17961 -0.165364,-0.25356 -0.551215,-0.25356 -0.418924,0 -0.639411,0.34176 -0.209462,0.34175 -0.209462,1.03628 0,0.89297 0.242535,1.34497 0.231511,0.452 1.311894,1.09141 3.097833,1.84106 3.902608,3.02066 0.804775,1.1796 0.804775,3.80339 0,1.90721 -0.451997,2.8112 -0.440973,0.90399 -1.719793,1.52136 -1.278821,0.60633 -2.976566,0.60633 -1.863109,0 -3.186027,-0.70555 -1.311894,-0.70556 -1.719794,-1.79697 -0.4079,-1.0914 -0.4079,-3.09783 v -1.16858 h 4.310508 v 2.17179 q 0,1.00322 0.176389,1.28985 0.187414,0.28663 0.650435,0.28663 0.463021,0 0.683508,-0.3638 0.23151,-0.3638 0.23151,-1.08038 0,-1.57648 -0.429948,-2.06155 -0.440973,-0.48507 -2.17179,-1.62058 -1.730818,-1.14653 -2.293058,-1.66467 -0.56224,-0.51814 -0.937067,-1.43316 -0.363803,-0.91502 -0.363803,-2.33715 0,-2.05053 0.518143,-2.99862 0.529167,-0.94809 1.697745,-1.47726 1.168578,-0.54019 2.822225,-0.54019 1.807988,0 3.075785,0.58429 1.27882,0.58429 1.68672,1.47726 0.418924,0.88194 0.418924,3.00964 z" />
        </g>
        <path
           style="color:#000000;fill:#f5f5dc;fill-opacity:1;-inkscape-stroke:none"
           d="M 102.87803,25.324685 1.230031,52.328693 1.082895,55.088833 104.37623,27.641619 Z"
           id="path17027"
           sodipodi:nodetypes="ccccc" />
        <path
           style="color:#000000;fill:#f5f5dc;fill-opacity:1;-inkscape-stroke:none"
           d="m 112.51833,59.460123 -102.719191,27.2992 1.541651,2.29826 100.99194,-26.87712 z"
           id="path17109"
           sodipodi:nodetypes="ccccc" />
        <g
           aria-label="SINCE 2005"
           transform="translate(-68.558481,-93.051992)"
           id="text17729"
           style="font-style:italic;font-weight:bold;font-size:12.7px;line-height:1.25;-inkscape-font-specification:'sans-serif Bold Italic';letter-spacing:0.751417px;word-spacing:0px;fill:#f5f5dc;fill-opacity:1;stroke-width:0.264583">
          <path
             id="path52780"
             style="font-style:normal;font-family:Arial;-inkscape-font-specification:'Arial Bold';fill:#f5f5dc;fill-opacity:1"
             d="m 165.64098,177.48662 0.74871,-1.5769 q 0.54198,0.24258 1.0288,0.11046 0.48153,-0.13533 0.72968,-0.54328 0.28359,-0.46623 0.10402,-1.01821 -0.18488,-0.55522 -0.94779,-1.01928 -0.71523,-0.43506 -1.26678,-0.3278 -0.55363,0.0987 -0.86623,0.61265 -0.38994,0.64106 -0.13243,1.49449 l -0.9096,1.1016 -3.57832,-3.22181 2.39444,-3.93642 1.39338,0.84756 -1.70802,2.80795 1.17741,1.03555 q 0.0539,-0.64948 0.36975,-1.16868 0.60264,-0.99073 1.74211,-1.24119 1.13948,-0.25046 2.28915,0.44886 0.95894,0.5833 1.37288,1.59721 0.56697,1.38282 -0.25159,2.72851 -0.6542,1.0755 -1.64418,1.40237 -0.98999,0.32688 -2.04539,-0.13364 z m -8.06191,-0.71003 q 0.83837,-1.02068 2.03906,-0.99744 1.42539,0.0232 3.42362,1.66456 1.99343,1.63738 2.29877,3.04377 0.25041,1.16063 -0.58796,2.18131 -0.84231,1.02547 -2.1438,1.0077 -1.30628,-0.0217 -3.32847,-1.68269 -1.98385,-1.62951 -2.28919,-3.0359 -0.2504,-1.16064 0.58797,-2.18131 z m 1.11652,0.91709 q -0.20074,0.24438 -0.20005,0.56595 -0.004,0.31763 0.31183,0.75367 0.40817,0.56799 1.64449,1.58348 1.23631,1.01549 1.80346,1.2727 0.56236,0.25326 0.8692,0.19233 0.31079,-0.0657 0.51152,-0.31011 0.20074,-0.24439 0.20484,-0.56202 -7e-4,-0.32156 -0.31662,-0.75761 -0.40338,-0.56405 -1.6397,-1.57954 -1.23631,-1.01549 -1.79867,-1.26876 -0.56715,-0.2572 -0.87793,-0.19148 -0.31164,0.057 -0.51237,0.30139 z m -5.60758,3.81666 q 0.9732,-0.89305 2.15877,-0.70168 1.40806,0.22286 3.15641,2.12813 1.74417,1.90071 1.84931,3.33601 0.0852,1.18428 -0.888,2.07733 -0.97777,0.89724 -2.26391,0.69717 -1.29034,-0.20464 -3.05966,-2.13276 -1.73578,-1.89156 -1.84092,-3.32687 -0.0852,-1.18428 0.888,-2.07733 z m 0.97691,1.06458 q -0.23302,0.21383 -0.27742,0.53231 -0.0486,0.31392 0.20307,0.78995 0.32451,0.61961 1.40622,1.79841 1.08172,1.1788 1.60721,1.51299 0.52129,0.32961 0.83365,0.3123 0.31693,-0.0215 0.54995,-0.23533 0.23301,-0.21382 0.28161,-0.52774 0.0444,-0.31848 -0.20727,-0.79452 -0.32031,-0.61504 -1.40203,-1.79384 -1.08172,-1.1788 -1.60301,-1.50842 -0.52549,-0.33418 -0.84242,-0.31268 -0.31655,0.0127 -0.54956,0.22657 z m 0.58665,7.52028 0.91737,1.33341 -5.03223,3.46211 q -0.43845,-0.81235 -0.4937,-1.76791 -0.0588,-0.96066 0.37718,-2.909 0.34856,-1.57209 0.34681,-2.04509 -0.009,-0.64833 -0.30824,-1.08258 -0.33039,-0.48023 -0.76668,-0.55642 -0.4347,-0.0848 -0.88939,0.22801 -0.44958,0.3093 -0.52896,0.76284 -0.0794,0.45354 0.31208,1.11005 l -1.5289,0.84111 q -0.68772,-1.27313 -0.36834,-2.25308 0.31937,-0.97996 1.33092,-1.67589 1.10863,-0.76272 2.15336,-0.60082 1.04474,0.1619 1.65632,1.05084 0.34796,0.50578 0.48038,1.09211 0.13401,0.57771 0.0851,1.34902 -0.0321,0.51133 -0.28276,1.60208 -0.25067,1.09076 -0.29399,1.42165 -0.0382,0.32737 -0.017,0.59883 z m -15.8249,10.17726 -3.32448,-8.46124 6.27379,-2.46502 0.56239,1.43137 -4.56537,1.79377 0.73701,1.87579 4.24793,-1.66904 0.56013,1.42559 -4.24794,1.66905 0.90483,2.30289 4.72698,-1.85727 0.56013,1.4256 z m -4.64595,-2.19611 1.85696,0.19396 q -0.10087,1.54023 -0.88999,2.44338 -0.7843,0.89583 -2.21774,1.19083 -1.77357,0.36501 -3.16421,-0.60868 -1.3919,-0.97977 -1.82441,-3.08133 -0.45751,-2.22304 0.43794,-3.68622 0.89421,-1.46925 2.76496,-1.85426 1.63387,-0.33626 2.85304,0.41948 0.72489,0.44594 1.24859,1.45244 l -1.69214,0.79143 q -0.30043,-0.65992 -0.88706,-0.95704 -0.58056,-0.29837 -1.29728,-0.15087 -0.99004,0.20376 -1.46332,1.0419 -0.46721,0.8369 -0.1397,2.42825 0.34751,1.68854 1.1024,2.28025 0.75489,0.59172 1.72671,0.39171 0.71672,-0.1475 1.13925,-0.70929 0.42252,-0.5618 0.446,-1.58594 z m -14.92487,4.91982 -0.21901,-9.08828 1.78542,-0.043 3.86588,5.97955 -0.14625,-6.06918 1.70482,-0.0411 0.21901,9.08828 -1.84121,0.0444 -3.80665,-5.83832 0.14282,5.9266 z m -4.33989,-0.46514 0.94517,-9.04166 1.8256,0.19084 -0.94517,9.04165 z m -8.78559,-4.73994 1.77965,0.22931 q -0.0435,0.91247 0.33993,1.43284 0.38948,0.52176 1.20553,0.70858 0.8644,0.19789 1.38266,-0.0651 0.52569,-0.26771 0.63778,-0.75734 0.072,-0.31433 -0.0656,-0.57484 -0.13014,-0.26518 -0.55218,-0.53356 -0.28942,-0.18077 -1.34404,-0.71484 -1.35701,-0.68601 -1.8183,-1.33871 -0.6486,-0.91824 -0.4078,-1.97004 0.15499,-0.67701 0.67005,-1.17617 0.52248,-0.50382 1.31239,-0.64743 0.79595,-0.14221 1.81752,0.0917 1.66836,0.38195 2.34114,1.30573 0.67882,0.92516 0.44159,2.15589 l -1.80725,-0.33104 q 0.0415,-0.70936 -0.27148,-1.09274 -0.30558,-0.38804 -1.06118,-0.56102 -0.77978,-0.17852 -1.29439,0.0408 -0.33116,0.14048 -0.41004,0.48504 -0.072,0.31432 0.1428,0.59887 0.27347,0.3616 1.50857,0.9688 1.23509,0.6072 1.78159,1.08221 0.55393,0.47034 0.77306,1.12486 0.22656,0.64986 0.0342,1.49008 -0.17437,0.76164 -0.74973,1.3297 -0.57536,0.56805 -1.42382,0.71734 -0.84708,0.14323 -2.00163,-0.12109 -1.68045,-0.38471 -2.40399,-1.36464 -0.72216,-0.98598 -0.55702,-2.51313 z" />
        </g>
        <g
           aria-label="SINCE 2005"
           id="text55920"
           style="font-weight:bold;font-size:12.7px;line-height:1.25;font-family:Arial;-inkscape-font-specification:'Arial Bold';letter-spacing:0px;fill:#f5f5dc;fill-opacity:1;stroke-width:0.264583"
           transform="translate(-184.32767,-74.359145)">
          <path
             id="path61666"
             d="m 257.03773,89.408855 1.62086,0.648071 q -0.20802,0.556163 -0.0456,1.033719 0.16535,0.472066 0.58809,0.69407 0.48313,0.253718 1.02274,0.03979 0.54249,-0.219419 0.95766,-1.010003 0.38923,-0.741172 0.2475,-1.284886 -0.13335,-0.546321 -0.6659,-0.825988 -0.66431,-0.348863 -1.49986,-0.0382 l -1.15662,-0.838537 2.99044,-3.773819 4.07919,2.142192 -0.75827,1.443913 -2.90979,-1.528078 -0.95947,1.240192 q 0.65158,0.01298 1.18962,0.29553 1.02666,0.539151 1.34827,1.660625 0.32161,1.121474 -0.30404,2.312839 -0.52185,0.99372 -1.50772,1.470591 -1.34443,0.652799 -2.73893,-0.07953 -1.11451,-0.585283 -1.50298,-1.552755 -0.38848,-0.967473 0.005,-2.049742 z m -2.23277,-7.983179 q 1.25815,0.402118 1.68001,1.526499 0.50486,1.333193 -0.28239,3.796335 -0.78535,2.457234 -1.97953,3.260419 -0.98609,0.661365 -2.24424,0.259246 -1.26406,-0.404006 -1.72824,-1.620035 -0.46229,-1.221937 0.33439,-3.714612 0.78158,-2.445421 1.97576,-3.248606 0.98609,-0.661364 2.24424,-0.259246 z m -0.43987,1.376287 q -0.30125,-0.09628 -0.59982,0.02313 -0.29669,0.113503 -0.58522,0.568142 -0.37708,0.589094 -0.86415,2.113052 -0.48707,1.523958 -0.51662,2.146004 -0.0277,0.616139 0.1423,0.878784 0.17586,0.264533 0.4771,0.360815 0.30125,0.09628 0.59794,-0.01722 0.29857,-0.11941 0.5871,-0.574049 0.37519,-0.583187 0.86226,-2.107145 0.48707,-1.523958 0.51473,-2.140097 0.0296,-0.622045 -0.14631,-0.886579 -0.16807,-0.268552 -0.46931,-0.364834 z m -8.01118,-3.270927 q 1.30917,0.175271 1.92166,1.208257 0.73081,1.22401 0.38767,3.787032 -0.34231,2.556875 -1.37714,3.557015 -0.85485,0.824029 -2.16402,0.648758 -1.31531,-0.176093 -1.98553,-1.291887 -0.6694,-1.12194 -0.32215,-3.715693 0.34067,-2.544583 1.3755,-3.544723 0.85484,-0.824029 2.16401,-0.648759 z m -0.19172,1.432096 q -0.31347,-0.04197 -0.58648,0.127948 -0.27218,0.163768 -0.47652,0.661957 -0.26794,0.646088 -0.48024,2.231842 -0.21229,1.585754 -0.13231,2.203343 0.0808,0.611443 0.29419,0.840217 0.21952,0.229597 0.53298,0.271564 0.31346,0.04197 0.58565,-0.121802 0.27301,-0.169915 0.47735,-0.668104 0.26711,-0.639941 0.47941,-2.225695 0.2123,-1.585754 0.13149,-2.197197 -0.08,-0.617589 -0.29951,-0.847186 -0.21255,-0.234921 -0.52601,-0.276887 z m -5.20193,5.563634 0.0715,1.616924 -6.10219,0.269982 q 0.0586,-0.921262 0.51799,-1.760944 0.45915,-0.845878 1.86117,-2.267293 1.12856,-1.148613 1.37768,-1.550691 0.33547,-0.554872 0.31217,-1.081456 -0.0258,-0.582341 -0.35542,-0.878117 -0.32373,-0.302246 -0.8751,-0.277852 -0.54517,0.02412 -0.85278,0.366714 -0.30762,0.342594 -0.32347,1.106785 l -1.74231,-0.09672 q 0.0913,-1.444118 0.88136,-2.106005 0.79007,-0.661886 2.01671,-0.716157 1.34434,-0.05948 2.1446,0.631363 0.80026,0.69084 0.84795,1.768789 0.0271,0.613316 -0.17122,1.180744 -0.19243,0.560958 -0.64259,1.189184 -0.29814,0.416661 -1.08865,1.208919 -0.79051,0.792258 -1.00257,1.04993 -0.20587,0.257398 -0.33174,0.498842 z m -17.02143,4.878029 -2.90867,-8.613036 6.38633,-2.156707 0.49206,1.457048 -4.64728,1.569416 0.64483,1.909439 4.32414,-1.460291 0.49007,1.451173 -4.32414,1.460291 0.79165,2.344203 4.81179,-1.624971 0.49007,1.451173 z m -4.73431,-1.324548 1.81467,-0.439177 q 0.42082,1.485059 -0.0203,2.600342 -0.43897,1.106767 -1.69081,1.864827 -1.54889,0.937939 -3.18533,0.486239 -1.63965,-0.457004 -2.75105,-2.292332 -1.17563,-1.941416 -0.82195,-3.619998 0.35048,-1.683887 1.98424,-2.67322 1.42689,-0.86406 2.82875,-0.560294 0.83239,0.177403 1.66294,0.950374 l -1.32935,1.31246 q -0.50409,-0.521188 -1.15636,-0.604674 -0.64696,-0.0867 -1.27288,0.292333 -0.86462,0.523575 -1.02985,1.471828 -0.15993,0.945041 0.68164,2.334798 0.89297,1.474627 1.80245,1.779336 0.90947,0.304709 1.75817,-0.20923 0.62592,-0.379031 0.83589,-1.049892 0.20997,-0.670861 -0.11092,-1.64372 z m -9.9559,12.121713 -6.35057,-6.505009 1.27793,-1.247587 6.90328,1.744924 -4.24093,-4.344065 1.22024,-1.191273 6.35057,6.505005 -1.31786,1.286575 -6.76371,-1.681855 4.14129,4.242005 z m -2.09877,2.95307 -7.30266,-5.414429 1.09323,-1.474479 7.30266,5.414428 z m -7.04804,6.29797 0.68419,-1.6588 q 0.86977,0.27928 1.47195,0.0444 0.60509,-0.2404 0.99769,-0.97979 0.41587,-0.78321 0.29663,-1.35204 -0.12179,-0.57722 -0.56543,-0.81278 -0.2848,-0.15122 -0.57212,-0.0861 -0.2899,0.0567 -0.6588,0.39444 -0.2498,0.23245 -1.03975,1.11191 -1.01529,1.13194 -1.76549,1.40763 -1.05531,0.3875 -2.00831,-0.11852 -0.61342,-0.32571 -0.96147,-0.95285 -0.35062,-0.63553 -0.28387,-1.4356 0.0696,-0.80555 0.56113,-1.73116 0.80265,-1.51164 1.8696,-1.92105 1.06985,-0.41489 2.19656,0.13422 l -0.78962,1.65898 q -0.67415,-0.22456 -1.12573,-0.022 -0.45416,0.19417 -0.81768,0.87879 -0.37515,0.70653 -0.29717,1.26048 0.0495,0.35629 0.36172,0.52206 0.28481,0.15122 0.61541,0.0178 0.42028,-0.17003 1.32776,-1.20474 0.90749,-1.03471 1.50827,-1.43889 0.5982,-0.41256 1.28718,-0.45395 0.68642,-0.0498 1.44772,0.35446 0.6901,0.36643 1.08899,1.06971 0.3989,0.70329 0.32241,1.56138 -0.082,0.85519 -0.63742,1.90129 -0.80847,1.52259 -1.94284,1.96642 -1.13984,0.44091 -2.57151,-0.11566 z"
             style="fill:#f5f5dc;fill-opacity:1" />
        </g>
      </g>
    </g>
  </g>
</svg>
