<?xml version="1.0" encoding="UTF-8" standalone="no"?>
<!-- Created with Inkscape (http://www.inkscape.org/) -->

<svg
   width="182.97638"
   height="309.81891"
   viewBox="0 0 48.412502 81.972931"
   version="1.1"
   id="svg5"
   inkscape:version="1.1.2 (b8e25be833, 2022-02-05)"
   sodipodi:docname="sprinkler-png.svg"
   xmlns:inkscape="http://www.inkscape.org/namespaces/inkscape"
   xmlns:sodipodi="http://sodipodi.sourceforge.net/DTD/sodipodi-0.dtd"
   xmlns="http://www.w3.org/2000/svg"
   xmlns:svg="http://www.w3.org/2000/svg">
  <sodipodi:namedview
     id="namedview7"
     pagecolor="#ffffff"
     bordercolor="#666666"
     borderopacity="1.0"
     inkscape:pageshadow="2"
     inkscape:pageopacity="0.0"
     inkscape:pagecheckerboard="0"
     inkscape:document-units="px"
     showgrid="false"
     units="px"
     inkscape:zoom="2"
     inkscape:cx="134.25"
     inkscape:cy="148.5"
     inkscape:window-width="1920"
     inkscape:window-height="1009"
     inkscape:window-x="-8"
     inkscape:window-y="-8"
     inkscape:window-maximized="1"
     inkscape:current-layer="layer1" />
  <defs
     id="defs2" />
  <g
     inkscape:label="Layer 1"
     inkscape:groupmode="layer"
     id="layer1">
    <g
       id="g17119"
       transform="translate(-79.375003,-82.020838)">
      <path
         style="fill:#27213c;fill-opacity:1;stroke:none;stroke-width:0.264583;stroke-linecap:butt;stroke-linejoin:miter;stroke-miterlimit:4;stroke-dasharray:none;stroke-opacity:1"
         d="m 103.24261,83.26017 h -5.937933 v 2.736612 l -16.806937,2.24609 v 3.1755 h 1.574836 v -1.729745 h 4.053289 v 1.729745 h 1.574844 v -1.729745 h 4.56963 v 1.729745 h 1.265034 v -1.729745 h 5.369959 v 1.729745 h 1.729748 v -1.729745 l 2.6079,-10e-4 2.68326,-0.001 v 1.729177 h 1.78022 v -1.729177 h 5.52667 v 1.729177 h 1.30195 v -1.729177 h 4.70299 v 1.729177 h 1.6208 v -1.729177 h 4.17158 v 1.729177 h 1.62079 V 88.241251 L 109.35382,85.996782 V 83.26017 h -6.11121"
         id="path6125"
         sodipodi:nodetypes="ccccccccccccccccccccccccccccccccccccccc" />
      <path
         style="fill:#27213c;fill-opacity:1;stroke:none;stroke-width:0.264583px;stroke-linecap:butt;stroke-linejoin:miter;stroke-opacity:1"
         d="m 103.39677,90.340319 h -1.6612 v 2.154143 l -3.432016,0.0183 v -2.172443 h -3.19471 v 1.460483 c -4.9557,2.577446 -12.28592,7.952366 -12.28592,17.196638 v 20.53738 c 0,5.50003 4.65645,8.88081 7.03924,11.86372 h 13.456746 13.45675 c 2.38279,-2.98291 7.03924,-6.36369 7.03924,-11.86372 v -20.53738 c 0,-9.244272 -7.33022,-14.619192 -12.28592,-17.196638 v -1.460483 h -3.19471 v 2.172443 l -3.43202,-0.0183 v -2.154143 h -1.6612"
         id="path6934"
         sodipodi:nodetypes="cccccccsscccssccccccc" />
      <path
         style="fill:#f5f5dc;fill-opacity:1;stroke:none;stroke-width:0.264583px;stroke-linecap:butt;stroke-linejoin:miter;stroke-opacity:1"
         d="m 103.03377,103.17981 h -1.97159 c -0.77075,-0.17531 -1.32547,-0.66649 -1.752526,-1.46046 -6.513294,1.16043 -8.38973,4.72846 -9.930966,8.47053 l -0.671245,17.79593 c 1.202231,2.15381 2.798395,3.89367 4.687446,5.49803 h 9.974501 9.30327 c 1.88905,-1.60436 3.48521,-3.34422 4.68744,-5.49803 l -0.67124,-17.79593 c -1.54124,-3.74207 -3.41768,-7.3101 -9.93097,-8.47053 -0.42706,0.79397 -0.98178,1.28515 -1.75253,1.46046 h -1.97159"
         id="path7918"
         sodipodi:nodetypes="ccccccccccccc" />
      <path
         style="fill:none;fill-opacity:1;stroke:#f5f5dc;stroke-width:0.608542;stroke-linecap:butt;stroke-linejoin:miter;stroke-miterlimit:4;stroke-dasharray:none;stroke-opacity:1"
         d="m 112.70116,140.71416 -19.342801,-0.001 c -4.080566,-0.044 -4.757527,-5.89411 0.0479,-6.70015 h 9.963131 9.28135 c 4.81597,0.80604 4.10249,6.65604 0.0504,6.70115 z"
         id="path10046"
         sodipodi:nodetypes="cccccc" />
      <path
         style="fill:#27213c;fill-opacity:1;stroke:none;stroke-width:0.264583px;stroke-linecap:butt;stroke-linejoin:miter;stroke-opacity:1"
         d="m 99.880207,122.10521 h -8.598958 c 2.47047,1.26254 4.309134,5.76308 6.085416,10.58333 h 12.435415 c 1.16633,-3.61643 1.32879,-6.47127 5.29167,-10.58333 h -7.67292 v -8.59896 c -2.1329,-1.51626 -4.45556,-2.76605 -7.540623,0.13229 z"
         id="path14052"
         sodipodi:nodetypes="ccccccccc" />
      <path
         style="fill:#27213c;fill-opacity:1;stroke:none;stroke-width:0.264583px;stroke-linecap:butt;stroke-linejoin:miter;stroke-opacity:1"
         d="m 99.68177,111.72031 c 2.46436,-2.0522 5.0323,-1.82561 7.67292,0 -0.13499,-2.35853 0.87612,-6.32509 -4.10105,-6.15156 -3.836075,0.13374 -3.694291,3.6503 -3.57187,6.15156 z"
         id="path14410"
         sodipodi:nodetypes="ccsc" />
      <path
         style="fill:#27213c;fill-opacity:1;stroke:none;stroke-width:0.264583px;stroke-linecap:butt;stroke-linejoin:miter;stroke-opacity:1"
         d="M 117.63199,162.98636 V 159.151 l 0.93545,-1.30962 -0.93545,-1.63703 0.93545,-1.30962 -0.93545,-1.1693 0.93545,-1.3564 -0.8419,-1.63702 0.8419,-1.44994 -0.93545,-1.87089 0.93545,-1.49671 -0.93545,-1.40316 0.84044,-1.26285 v -1.14592 H 88.539713 v 0.95884 l 0.935445,1.26285 -0.935445,1.40316 0.935445,1.49671 -0.935445,1.87089 0.841901,1.44994 -0.841901,1.63702 0.935445,1.3564 -0.935445,1.1693 0.935445,1.30962 -0.935445,1.63703 0.935445,1.30962 v 4.02244 h 14.078412 z"
         id="path15424"
         sodipodi:nodetypes="cccccccccccccccccccccccccccccc" />
    </g>
  </g>
</svg>
